{"glyphs":{"0":{"ha":817,"x_min":30,"x_max":802,"o":"m 271 977 l 327 1036 l 408 1039 q 425 1039 408 1039 q 574 997 515 1039 q 700 841 632 955 q 802 576 802 670 q 789 534 802 547 q 776 410 776 521 q 757 227 776 305 q 661 37 730 123 q 514 -76 591 -50 q 438 -92 465 -92 q 373 -72 406 -92 q 292 -52 339 -52 q 184 -14 237 -52 q 99 81 130 23 q 78 126 83 114 q 70 164 73 138 q 66 236 66 190 l 66 307 q 76 540 69 469 l 83 613 l 56 605 q 38 602 42 602 q 30 610 30 602 q 49 659 30 618 q 76 734 68 703 q 102 768 83 762 q 167 846 118 773 q 271 977 205 905 m 423 966 q 420 975 435 974 q 406 975 415 975 q 370 966 370 975 q 389 954 370 954 q 423 966 404 954 m 377 924 q 354 907 369 924 q 339 880 339 890 q 358 894 339 878 q 381 918 381 914 q 377 924 381 924 m 476 817 q 429 848 454 848 q 389 821 408 848 q 317 694 370 795 l 274 612 l 274 406 q 288 186 274 199 q 336 174 300 174 q 404 157 374 174 q 439 148 426 148 q 515 203 472 148 q 582 454 582 289 q 574 555 582 505 q 533 697 564 614 q 476 817 502 780 m 701 583 q 696 612 701 613 q 689 604 693 612 q 692 575 684 595 q 701 583 700 563 m 396 83 q 378 96 391 96 q 330 90 370 96 l 293 83 l 315 62 q 390 19 342 38 q 468 0 438 0 q 487 11 487 0 q 445 43 487 19 q 396 83 400 69 z "},"1":{"ha":433,"x_min":-37,"x_max":433,"o":"m 416 31 q 399 36 414 31 q 380 41 384 41 q 369 -30 369 41 q 361 -104 369 -104 q 281 -65 357 -104 q 155 -24 208 -26 q 103 0 103 -23 q 138 76 103 18 q 151 122 146 88 q 165 317 155 156 q 176 575 176 468 q 164 670 176 666 q 132 678 159 671 q 90 692 106 685 q 75 707 75 699 q 91 734 75 715 q 107 754 107 753 q 22 784 107 762 q -37 802 -37 799 q 52 894 -37 806 q 163 1034 142 985 q 201 1082 182 1082 q 242 1050 220 1082 q 264 989 264 1017 q 267 968 264 970 q 274 977 270 967 q 311 989 285 994 q 336 968 336 985 q 335 959 336 963 l 335 945 q 343 880 335 913 q 388 330 373 758 q 397 164 393 197 q 414 122 401 132 q 433 73 433 110 q 416 31 433 31 m 275 822 q 277 810 275 812 q 282 814 279 804 q 281 827 283 821 q 275 822 277 830 m 294 158 q 300 162 294 158 q 305 175 305 165 q 296 184 305 184 q 279 173 286 184 q 278 156 273 161 q 294 158 283 151 z "},"2":{"ha":670,"x_min":20,"x_max":662,"o":"m 216 673 q 218 650 216 667 q 221 629 221 633 q 190 609 221 614 q 144 601 149 601 q 109 631 119 601 l 98 659 l 98 629 q 84 602 98 602 q 75 604 81 602 q 65 606 69 606 q 28 629 37 613 q 20 688 20 644 q 88 852 20 772 q 277 993 156 933 q 350 1017 330 1017 q 452 959 385 1017 q 656 663 632 798 q 659 633 659 644 q 619 510 659 582 q 479 311 579 438 l 399 209 l 500 201 q 589 191 566 197 q 627 171 613 186 q 650 128 637 160 q 662 83 662 96 q 659 77 662 77 q 610 92 658 77 q 553 107 562 107 l 548 107 q 559 71 543 102 q 585 -38 585 19 q 579 -47 585 -47 q 570 -45 578 -47 q 483 -22 545 -35 q 388 -9 420 -9 q 275 -22 346 -9 q 180 -45 203 -34 q 155 -54 161 -54 q 134 -38 145 -54 q 110 23 110 0 q 127 56 110 43 q 142 69 142 66 q 134 72 142 72 q 100 69 129 72 q 65 66 72 66 q 42 79 42 66 q 84 121 42 96 q 187 163 126 145 q 288 217 288 191 q 282 219 288 218 q 267 219 277 220 q 247 216 258 218 q 68 180 103 180 l 64 180 q 175 302 64 186 q 366 515 273 404 q 460 639 460 625 q 412 716 460 648 q 357 784 363 784 q 293 755 355 784 q 233 718 251 735 q 216 673 216 700 m 391 906 q 358 922 372 922 q 353 921 353 922 q 385 902 353 918 q 404 894 403 892 q 391 906 406 895 z "},"3":{"ha":612,"x_min":-15,"x_max":618,"o":"m 279 822 q 141 842 279 842 q 37 845 57 842 q 12 861 16 848 q 11 871 11 865 q 21 897 11 882 q 31 924 31 913 q 60 958 31 945 q 80 968 77 966 q 73 972 81 971 q 68 974 71 974 q 38 994 54 977 q 22 1021 22 1010 q 190 1044 22 1044 q 327 1040 229 1044 q 442 1036 425 1036 q 477 1030 471 1035 q 487 1005 484 1025 q 502 975 490 975 q 495 936 511 975 q 483 899 483 907 q 484 894 483 894 q 506 911 491 894 q 555 932 524 932 q 575 918 575 932 q 439 684 575 883 q 368 562 368 581 q 376 553 368 560 q 399 536 384 547 q 422 518 414 525 q 552 368 486 469 q 618 218 618 267 q 574 90 618 138 q 423 -1 530 41 q 136 -75 237 -75 q 4 -8 42 -75 l -15 24 l 15 16 q 95 9 42 9 q 203 27 203 9 q 167 50 203 34 q 98 92 123 69 q 72 132 72 115 q 110 153 72 153 q 280 182 156 153 q 404 222 404 212 q 382 264 404 229 q 334 330 359 298 q 235 400 275 400 q 221 397 225 400 q 165 388 206 388 q 132 396 132 388 q 135 408 132 400 q 138 418 138 415 q 114 461 138 435 q 65 491 88 491 q 47 489 60 491 q 30 487 34 487 q 20 494 20 487 q 138 643 20 506 q 194 707 174 684 q 279 822 279 806 z "},"4":{"ha":791,"x_min":-4,"x_max":783,"o":"m 320 960 q 334 1004 320 981 q 363 1028 349 1028 q 387 1002 372 1028 q 411 975 403 975 q 427 930 426 975 q 430 895 427 895 q 439 913 433 895 q 463 945 446 930 q 494 959 480 959 q 510 936 510 959 q 465 741 510 887 q 373 491 420 595 q 350 427 350 439 q 354 423 350 423 l 358 423 q 465 430 374 430 l 557 430 l 551 480 q 540 538 548 496 q 532 583 532 579 q 525 625 525 614 q 535 650 525 637 q 555 663 545 663 q 575 650 559 663 q 606 639 594 631 l 610 639 q 640 598 621 639 l 661 553 l 661 590 q 671 635 661 617 q 696 654 681 654 q 741 517 718 654 q 774 176 764 380 l 783 46 l 746 14 q 701 -18 712 -18 q 693 41 693 -18 q 684 99 693 99 q 627 58 673 99 q 552 0 560 0 q 543 20 543 0 q 548 95 543 27 l 556 203 l 521 210 q 422 217 491 217 q 256 205 338 217 q 157 176 174 193 q 152 174 155 174 q 107 203 137 174 l 69 241 l 106 274 q 125 298 134 300 q 121 297 123 298 q 62 283 106 292 q 5 274 19 274 q 16 300 -3 274 q 20 307 19 304 q 170 388 56 353 q 232 418 232 407 q 220 422 232 422 q 175 417 209 422 q 125 412 141 412 q 99 414 106 412 l 64 420 l 113 487 q 250 738 179 578 q 320 960 320 898 z "},"5":{"ha":604,"x_min":18,"x_max":602,"o":"m 72 930 q 91 928 77 930 q 109 926 104 926 q 138 936 138 926 q 123 943 138 939 q 94 958 106 947 q 81 982 81 970 q 91 997 81 990 q 271 1039 134 1024 q 407 1048 373 1048 q 480 1038 457 1048 q 514 1001 503 1027 q 526 966 526 974 q 486 954 526 954 l 445 954 l 476 883 q 505 810 505 815 q 499 807 505 807 q 411 819 484 807 q 286 836 327 836 q 269 836 274 836 q 259 834 264 836 q 252 830 254 833 q 251 822 251 827 q 253 810 251 819 q 255 796 255 802 q 263 694 263 753 q 267 641 263 651 q 292 627 271 631 q 342 612 301 624 q 421 590 384 600 q 476 581 458 581 q 552 538 500 581 q 592 493 586 509 q 601 415 598 477 q 602 374 602 400 q 578 275 602 328 q 384 53 525 167 q 163 -61 243 -61 q 88 -26 122 -61 l 56 8 l 109 15 q 208 45 208 27 q 176 66 208 54 q 126 104 151 76 q 102 148 102 132 q 137 168 102 161 q 288 252 186 178 q 391 351 391 326 q 321 401 391 368 q 212 437 251 435 q 147 460 180 438 q 114 498 114 481 q 115 501 114 499 q 117 505 117 503 q 115 506 117 506 q 71 487 106 506 q 22 471 38 471 q 18 473 18 471 q 38 606 18 487 q 58 804 58 727 q 47 886 58 857 q 43 907 43 898 q 72 930 43 930 z "},"6":{"ha":774,"x_min":30,"x_max":779,"o":"m 532 926 q 446 756 532 921 q 361 587 361 591 q 442 581 361 581 q 680 491 591 581 q 774 252 774 393 q 751 126 774 184 q 749 113 750 115 q 758 113 747 110 q 772 115 768 115 q 779 110 779 115 q 731 42 779 92 q 608 -42 680 -9 q 473 -75 537 -75 l 471 -75 q 241 18 347 -73 q 94 245 134 109 l 80 292 q 55 269 72 283 q 30 245 38 254 l 30 277 q 41 345 30 304 q 52 437 52 382 q 62 511 52 480 q 91 543 73 543 l 96 543 l 98 541 q 134 594 113 541 q 243 800 151 632 q 368 1017 335 967 q 403 1038 381 1038 q 435 1008 431 1038 q 449 975 439 982 q 452 966 452 974 q 438 916 452 947 l 415 864 l 445 899 q 503 933 475 933 q 532 926 532 933 m 353 498 q 355 503 361 500 q 346 505 353 505 q 332 499 332 503 q 353 498 339 492 m 522 357 q 490 381 503 376 q 439 387 476 387 l 419 387 q 309 374 339 385 q 278 332 278 363 q 286 290 278 323 q 340 205 300 245 q 423 152 380 164 l 469 138 l 511 182 q 547 227 538 210 q 555 277 555 244 q 522 357 555 324 m 661 146 q 655 153 661 153 q 601 115 647 153 q 568 81 568 87 q 587 77 568 77 l 589 77 q 639 109 616 77 q 661 146 661 137 z "},"7":{"ha":595,"x_min":-26,"x_max":594,"o":"m 20 769 q 14 770 14 769 q 7 805 14 772 q 0 848 0 838 q 27 880 0 863 q 54 899 54 897 q 35 902 54 902 q -7 913 12 902 q -26 935 -26 924 q 39 968 -26 958 q 245 982 103 978 q 441 997 423 987 q 454 1001 448 1001 q 475 991 467 1001 q 484 964 484 981 q 496 943 484 943 q 505 918 505 943 q 490 826 505 895 q 502 838 487 808 q 506 848 503 842 q 562 916 526 897 l 594 933 l 587 887 q 491 605 578 825 q 340 153 358 260 q 273 24 324 61 q 236 3 244 3 q 235 11 235 5 q 241 92 235 24 q 247 170 247 159 q 245 176 247 176 q 167 109 237 176 q 94 45 103 45 q 90 62 90 45 q 267 593 90 193 q 334 755 334 735 q 254 770 334 764 q 110 777 174 777 q 57 774 66 777 q 20 769 37 769 m 388 879 q 378 890 388 890 q 369 886 369 890 q 380 873 368 878 q 388 879 388 871 z "},"8":{"ha":680,"x_min":30,"x_max":692,"o":"m 30 863 q 99 1004 30 951 q 274 1058 168 1058 q 378 1019 339 1058 q 411 975 411 986 q 456 933 411 966 q 576 768 552 861 q 585 700 585 738 q 547 528 585 614 l 518 463 l 581 396 q 692 171 692 277 q 636 38 692 98 q 545 -17 597 -4 q 353 -30 492 -30 l 179 -30 q 186 -60 182 -39 q 193 -90 190 -80 l 160 -57 q 72 149 95 4 q 64 228 64 209 q 115 407 64 304 l 157 494 l 110 593 q 30 863 30 764 m 297 956 q 270 966 297 966 q 249 962 252 966 q 254 948 245 958 q 294 926 262 939 q 342 914 327 914 q 328 932 359 914 q 324 933 326 932 q 297 956 297 948 m 362 745 q 300 802 343 777 q 259 821 267 821 q 254 807 254 821 q 281 705 254 783 q 323 614 309 628 q 332 609 328 609 q 358 656 342 609 q 374 711 374 701 q 362 745 374 724 m 408 423 q 357 449 388 437 q 334 457 334 458 q 339 448 332 456 q 373 425 351 433 q 407 389 396 416 l 419 361 l 423 387 l 423 396 q 408 423 423 414 m 305 345 q 285 308 298 345 q 271 258 271 271 q 279 216 271 241 l 293 168 l 387 165 q 405 165 393 165 q 420 164 416 164 q 479 174 479 164 q 396 266 479 186 q 305 345 315 345 z "},"9":{"ha":718,"x_min":12,"x_max":680,"o":"m 217 1036 q 237 1006 224 1036 q 255 975 250 975 q 262 985 262 975 q 247 1032 262 998 q 244 1043 244 1040 q 255 1050 244 1050 q 359 1028 274 1050 q 496 983 449 1005 q 581 928 543 962 q 635 890 621 890 q 653 863 646 890 q 670 761 661 837 q 680 571 680 670 q 620 216 680 324 q 489 79 574 132 q 300 16 404 26 q 263 15 286 15 q 118 75 176 15 q 81 123 81 114 q 90 127 81 127 q 103 125 92 127 q 179 113 121 119 q 269 107 237 107 q 283 109 281 107 q 285 110 285 109 q 251 146 285 119 q 183 212 218 172 q 148 263 148 252 q 152 266 148 266 q 193 258 157 266 q 275 250 228 250 q 290 250 281 250 q 302 251 298 251 q 401 279 373 255 q 454 374 430 302 q 475 454 475 435 q 468 458 475 458 q 400 446 448 458 q 288 431 343 431 q 255 433 277 431 q 228 435 233 435 q 95 455 138 441 q 31 502 52 469 q 12 566 12 532 q 75 766 12 627 q 155 959 134 895 q 197 1027 171 1012 q 217 1036 213 1036 m 281 937 q 271 960 281 960 q 258 918 258 960 q 266 902 258 902 q 281 937 281 902 m 590 764 q 590 807 595 783 q 586 806 587 821 q 586 789 586 800 q 589 761 586 760 q 590 764 589 761 m 453 788 q 368 804 427 804 q 315 800 327 804 q 296 780 302 795 q 283 749 294 776 q 264 705 271 722 l 241 654 l 266 654 q 346 671 278 654 q 420 681 378 681 q 439 680 434 681 l 476 674 l 476 722 q 453 788 476 772 z "}," ":{"ha":357,"x_min":0,"x_max":0,"o":""},"!":{"ha":357,"x_min":52,"x_max":302,"o":"m 83 130 l 76 179 l 126 172 q 186 156 174 165 q 194 153 191 153 q 218 159 201 153 q 241 164 236 164 q 292 71 277 164 q 297 20 297 42 q 285 -9 297 -3 q 239 -16 273 -16 q 205 1 205 -16 q 174 12 205 18 q 99 0 125 4 l 52 -7 l 71 38 q 84 107 84 69 q 83 130 84 122 m 297 328 q 289 300 297 313 q 270 288 281 288 q 248 300 263 288 q 214 315 228 317 l 213 315 q 180 366 198 315 l 163 419 l 161 377 q 140 312 161 331 q 121 300 125 300 q 109 313 117 300 q 68 726 79 370 l 61 952 l 100 990 q 151 1027 140 1027 q 160 1000 160 1027 q 156 951 160 989 q 152 907 152 914 q 157 895 152 895 q 243 954 167 895 q 300 990 292 990 l 301 990 q 302 979 302 990 q 293 875 302 955 q 281 590 281 768 q 292 377 281 442 q 297 328 297 346 z "},"\"":{"ha":681,"x_min":50,"x_max":631,"o":"m 479 952 q 541 985 483 952 q 601 1019 598 1019 q 606 909 606 1019 l 606 845 q 623 703 606 739 q 631 667 631 686 q 610 644 631 644 q 585 650 605 644 q 556 655 564 655 q 548 654 551 655 q 521 673 534 648 q 509 688 511 688 q 496 670 505 688 q 465 643 484 643 q 430 680 444 643 q 380 929 400 754 q 377 956 377 951 q 383 977 377 970 q 408 997 389 985 q 448 1015 437 1015 q 467 982 463 1015 q 479 952 469 952 m 152 952 q 214 985 156 952 q 274 1019 271 1019 q 279 909 279 1019 l 279 845 q 296 703 279 739 q 304 667 304 686 q 283 644 304 644 q 258 650 278 644 q 229 655 237 655 q 221 654 224 655 q 194 673 208 648 q 182 688 184 688 q 170 670 178 688 q 138 643 157 643 q 103 680 117 643 q 53 929 73 754 q 50 956 50 951 q 56 977 50 970 q 81 997 62 985 q 121 1015 110 1015 q 140 982 136 1015 q 152 952 142 952 z "},"#":{"ha":1206,"x_min":-1,"x_max":1213,"o":"m 564 945 q 570 947 566 945 q 576 948 575 948 q 583 932 583 948 q 576 859 583 911 q 568 798 568 807 l 568 796 q 585 836 571 796 q 639 920 605 892 l 671 943 l 671 914 q 652 814 671 894 q 621 701 633 735 q 620 694 620 699 q 690 684 620 684 l 765 684 l 784 762 q 808 895 806 860 q 825 958 812 935 q 853 982 838 982 q 875 968 864 982 q 886 945 886 955 q 892 935 886 935 q 900 936 894 935 q 910 937 906 937 q 918 911 918 937 q 917 859 918 882 l 911 774 l 928 831 q 975 918 945 888 l 1004 947 l 1004 899 q 989 774 1004 852 q 975 697 975 709 q 985 678 975 682 q 1023 674 994 674 l 1038 674 q 1122 661 1090 674 q 1185 616 1154 648 l 1213 587 l 990 587 l 1031 557 q 1120 481 1062 534 l 1171 437 q 1042 444 1128 439 q 911 450 955 448 l 905 423 q 898 384 898 396 q 911 361 898 361 q 967 317 924 361 l 1006 275 l 939 273 q 867 247 867 269 q 913 184 867 233 q 962 127 962 136 q 948 126 962 126 q 903 129 921 126 q 884 131 897 129 q 868 133 872 133 q 842 116 849 133 q 821 33 834 99 q 791 -62 808 -31 q 735 -123 774 -92 q 700 -148 704 -148 q 694 -136 694 -148 q 712 -39 694 -115 q 731 56 731 41 q 663 4 723 56 q 575 -75 618 -35 l 548 -98 l 556 -65 q 589 62 574 9 l 616 156 l 456 156 l 418 35 q 362 -111 381 -84 q 309 -157 350 -129 q 255 -186 267 -186 l 254 -184 l 254 -183 q 282 -91 254 -171 q 313 12 313 -4 q 309 19 313 19 q 281 1 302 19 q 190 -64 245 -28 q 126 -100 134 -100 q 125 -96 125 -99 q 157 -4 125 -90 q 201 119 201 100 q 193 127 201 127 q 167 122 191 127 q 99 103 113 109 q 71 99 90 99 q 39 108 52 99 q 26 130 26 117 q 39 156 26 142 q 52 186 52 168 q 100 222 52 205 l 149 241 l 106 240 l 103 240 q 31 255 61 240 l -1 271 l 24 285 q 170 323 50 301 l 289 346 q 312 414 296 369 q 336 481 328 458 l 210 477 q 132 476 175 476 q 87 481 96 476 q 79 506 79 487 q 96 538 79 526 q 109 552 109 547 q 100 555 109 555 q 85 559 85 555 q 110 572 85 564 q 164 583 134 581 q 213 594 213 589 q 178 604 213 598 q 132 609 142 609 q 102 631 123 609 q 77 677 77 652 q 88 689 77 689 q 106 675 106 689 q 104 671 106 673 q 104 670 104 670 q 103 669 103 670 q 115 663 103 663 q 126 665 118 663 q 138 667 134 667 q 294 680 178 671 l 408 686 l 438 779 q 475 918 464 869 q 505 986 484 963 q 530 1002 518 1002 q 551 971 547 1002 q 564 945 555 945 m 700 464 q 627 473 697 467 l 555 480 l 537 429 q 519 374 519 378 q 544 370 519 370 q 629 378 567 370 q 673 389 663 382 q 690 423 682 396 q 700 463 700 456 l 700 464 z "},"$":{"ha":803,"x_min":15,"x_max":774,"o":"m 290 974 q 283 1001 290 981 q 275 1029 275 1021 q 298 1047 275 1047 q 393 1020 361 1047 q 407 1012 407 1008 q 406 1015 407 1012 q 404 1019 404 1016 q 418 1037 404 1028 q 445 1046 433 1046 q 454 1044 452 1046 q 485 995 465 1038 q 505 937 505 952 q 505 936 505 936 l 503 933 q 500 926 500 928 q 572 875 500 907 q 743 727 685 819 l 774 674 l 738 652 q 684 631 699 631 q 667 636 677 631 q 656 642 658 642 q 651 614 651 642 q 635 567 651 567 q 579 620 616 567 q 525 666 556 651 q 407 700 494 681 q 365 732 376 708 q 349 753 355 753 q 323 741 343 753 q 240 633 264 708 q 233 595 233 610 q 270 548 233 556 q 507 454 354 530 q 693 336 659 378 q 736 258 719 307 q 754 174 754 210 q 711 66 754 115 q 593 -8 667 18 l 544 -24 l 541 -113 l 537 -198 l 499 -216 q 461 -229 465 -229 q 453 -198 453 -229 q 448 -167 453 -167 q 377 -194 444 -167 q 308 -217 321 -217 l 305 -217 q 304 -212 304 -214 q 318 -145 304 -203 q 332 -64 332 -87 q 300 -39 332 -50 q 232 5 269 -28 q 191 33 212 26 q 126 45 170 41 q 68 54 83 49 q 54 71 54 60 q 71 103 54 91 q 88 130 88 118 q 121 153 88 146 q 146 161 145 157 q 133 168 146 163 q 104 209 104 179 q 165 235 104 235 q 228 231 191 235 q 370 221 307 221 q 454 205 437 221 q 480 191 468 191 q 505 197 488 191 l 533 208 l 471 247 q 330 319 407 288 q 212 353 252 350 q 202 353 208 353 q 194 354 197 354 q 172 348 176 354 q 164 321 167 342 q 155 285 161 285 q 90 372 142 285 q 26 500 38 458 q 15 579 15 541 q 77 772 15 678 q 241 921 138 867 q 290 974 290 947 z "},"%":{"ha":996,"x_min":-8,"x_max":972,"o":"m 792 -43 q 756 -33 780 -43 q 718 -22 732 -22 q 662 -4 689 -22 q 621 43 635 14 q 605 121 605 75 l 605 156 q 610 274 605 198 l 614 309 l 600 305 q 587 307 587 302 q 597 332 586 312 q 610 369 609 359 q 623 388 613 385 q 655 425 631 389 q 707 490 684 465 l 735 521 l 776 522 l 785 522 q 859 501 830 522 q 922 423 888 480 q 972 290 972 339 q 967 270 972 275 q 960 208 960 263 q 949 115 960 159 q 901 21 936 64 q 829 -35 867 -22 q 792 -43 806 -43 m 784 484 q 774 490 785 490 q 757 484 757 490 q 766 479 757 479 q 784 484 776 479 m 762 461 q 751 458 762 471 q 746 452 747 456 q 742 442 741 442 q 751 450 743 442 q 762 461 762 458 m 808 396 q 787 410 799 410 q 769 398 777 410 q 736 340 761 387 l 716 302 l 716 210 q 722 111 716 117 q 745 106 727 106 q 774 99 761 106 q 791 95 783 95 q 825 119 806 95 q 856 232 856 160 q 852 278 856 255 q 808 396 838 353 m 922 294 q 920 308 922 307 l 917 304 q 918 290 916 296 q 921 285 921 285 l 922 294 m 817 8 q 793 26 817 11 q 769 45 769 42 q 736 47 766 53 l 719 45 l 731 35 q 768 13 745 23 q 806 3 792 3 q 817 8 817 3 m 197 476 q 161 487 184 476 q 123 498 138 498 q 67 516 95 498 q 26 564 39 534 q 11 642 11 593 l 11 677 q 15 793 11 736 l 19 829 l 5 826 q -7 828 -7 823 q 3 853 -8 833 q 15 890 12 875 q 27 907 18 905 q 61 945 35 910 q 113 1010 90 986 l 140 1040 l 182 1042 l 190 1042 q 265 1021 236 1042 q 328 943 294 1000 q 378 811 378 859 q 372 791 378 798 q 365 728 365 784 q 355 636 365 674 q 307 541 342 585 q 235 484 273 498 q 197 476 212 476 m 189 1005 q 180 1010 190 1010 q 163 1005 163 1010 q 172 1000 163 1000 q 189 1005 180 1000 m 168 982 q 157 979 168 991 q 152 972 153 977 q 148 963 146 963 q 157 970 149 963 q 168 982 168 978 m 151 627 q 173 621 157 627 q 195 614 189 614 q 231 639 212 614 q 262 753 262 680 q 256 798 262 768 q 214 916 241 875 q 191 929 205 929 q 174 918 182 929 q 141 861 165 906 l 122 823 l 122 731 q 127 632 122 637 q 151 627 133 627 m 328 814 q 326 827 328 826 l 323 823 q 324 810 321 815 q 327 804 327 804 l 328 814 m 222 528 q 199 546 222 530 q 175 564 175 562 q 141 568 172 574 l 125 564 l 136 555 q 173 533 148 543 q 212 524 198 524 q 222 528 222 524 m 534 907 q 553 960 534 929 q 589 990 571 990 q 612 962 604 990 q 621 944 614 951 q 632 939 627 937 l 633 939 q 642 910 642 939 q 640 864 642 883 l 635 785 l 651 836 q 699 917 669 887 l 730 945 l 730 887 q 587 461 730 777 q 463 171 582 449 q 381 5 403 30 q 335 -29 365 -12 q 293 -46 305 -46 q 289 -43 289 -46 q 316 49 289 -23 q 347 140 347 137 l 346 140 q 292 110 336 140 q 261 90 282 103 q 224 66 240 76 q 198 50 208 56 q 163 34 170 34 q 159 46 159 34 q 320 388 159 71 q 534 907 534 812 z "},"&":{"ha":891,"x_min":27,"x_max":894,"o":"m 217 926 q 187 940 217 940 q 83 924 149 940 q 71 922 77 922 q 61 929 61 922 q 104 990 61 943 q 205 1059 148 1038 q 313 1082 271 1082 l 317 1082 q 539 1057 388 1082 q 690 1017 690 1032 q 664 967 690 1002 q 625 932 637 932 q 628 899 610 932 q 639 868 639 878 q 629 856 639 863 q 632 846 616 846 q 694 891 659 846 q 728 971 728 936 q 739 996 728 996 q 758 964 750 996 q 765 887 765 932 q 722 758 765 819 q 551 583 678 697 l 509 545 l 576 444 q 652 339 646 339 q 681 363 663 339 q 708 415 699 388 q 746 468 727 468 q 774 439 760 468 q 800 410 789 410 q 807 373 807 410 l 807 338 l 829 363 q 879 399 859 399 q 894 378 894 399 q 863 288 894 346 q 789 190 831 229 l 762 165 l 788 109 q 812 35 812 54 q 799 -26 812 19 l 785 -75 l 746 3 q 688 90 703 90 q 663 26 663 90 q 648 -60 663 -12 l 633 -109 l 609 -52 q 574 5 585 5 q 533 -16 566 5 q 418 -64 468 -64 q 335 -27 366 -64 q 237 9 315 -7 q 27 248 27 57 q 56 368 27 305 q 152 526 84 431 l 213 612 l 140 716 q 85 804 98 777 q 72 854 72 830 q 73 861 72 857 q 73 868 73 865 l 76 914 l 110 884 q 142 865 130 865 q 151 869 149 865 q 182 852 157 882 q 232 792 222 803 l 255 765 l 236 803 q 205 849 218 841 q 195 861 195 854 q 206 895 195 867 q 217 926 217 924 m 401 865 l 377 865 q 296 854 296 865 q 331 788 296 842 q 382 715 377 720 q 449 781 392 715 q 506 857 506 846 q 401 865 506 865 m 401 189 l 412 189 q 460 206 460 189 q 411 308 460 225 q 350 395 358 395 q 345 387 347 395 q 317 357 336 361 q 268 303 301 353 q 235 235 235 254 q 291 203 235 217 q 401 189 347 189 m 407 62 q 395 68 408 66 q 378 65 378 68 q 381 62 378 64 q 407 62 393 57 z "},"'":{"ha":354,"x_min":50,"x_max":304,"o":"m 152 952 q 214 985 156 952 q 274 1019 271 1019 q 279 909 279 1019 l 279 845 q 296 703 279 739 q 304 667 304 686 q 283 644 304 644 q 258 650 278 644 q 229 655 237 655 q 221 654 224 655 q 194 673 208 648 q 182 688 184 688 q 170 670 178 688 q 138 643 157 643 q 103 680 117 643 q 53 929 73 754 q 50 956 50 951 q 56 977 50 970 q 81 997 62 985 q 121 1015 110 1015 q 140 982 136 1015 q 152 952 142 952 z "},"(":{"ha":376,"x_min":39,"x_max":362,"o":"m 277 1004 q 264 933 277 993 q 251 868 251 873 l 251 867 q 275 913 259 867 q 330 986 293 963 q 357 1001 353 1001 q 362 991 362 1001 q 328 857 362 972 q 266 606 278 688 q 254 361 254 525 l 254 320 q 258 168 254 202 q 288 65 263 133 q 323 -94 323 -38 l 321 -156 l 296 -123 q 233 -23 260 -79 l 197 45 l 186 15 q 175 -111 175 -18 l 175 -209 l 144 -161 q 49 106 71 -45 q 39 262 39 163 q 75 646 39 472 q 145 912 106 787 q 206 1063 184 1038 q 239 1089 228 1089 q 258 1056 250 1089 q 273 1019 267 1023 q 277 1004 277 1017 z "},")":{"ha":403,"x_min":1,"x_max":380,"o":"m 104 -103 q 97 -105 102 -103 q 91 -107 92 -107 q 88 -103 88 -107 q 111 -23 88 -94 q 133 56 133 47 l 133 57 q 106 7 127 57 q 42 -66 81 -49 l 1 -88 l 11 -58 q 56 65 28 -5 q 170 544 170 361 q 95 815 170 680 q 60 888 68 863 q 53 951 53 913 q 62 1001 53 1001 q 133 914 73 1001 q 191 848 178 848 q 197 903 197 850 q 195 966 197 943 l 189 1078 l 213 1051 q 285 941 244 1016 q 345 807 326 865 q 380 557 380 704 q 369 433 380 491 q 268 83 345 298 q 157 -161 191 -133 q 119 -180 134 -180 q 107 -159 107 -180 q 109 -136 107 -153 q 111 -115 111 -119 q 104 -103 111 -103 z "},"*":{"ha":770,"x_min":52,"x_max":722,"o":"m 127 807 q 142 854 142 807 q 156 914 142 860 l 167 954 q 227 903 187 936 q 286 852 266 869 l 278 921 q 275 956 277 937 q 271 985 273 975 q 270 996 270 994 q 278 1020 270 1001 q 304 1038 286 1038 q 332 1017 326 1038 q 357 998 339 996 l 359 998 q 387 952 374 998 l 399 905 l 403 941 q 431 993 407 978 q 450 1002 445 1002 q 469 960 458 1002 l 481 910 l 517 930 q 591 951 549 951 q 647 939 623 951 q 663 925 663 930 q 618 888 663 917 q 564 852 564 856 q 636 823 564 845 q 722 787 722 798 q 655 742 722 776 q 575 694 575 701 q 623 651 575 689 q 670 587 670 616 q 659 550 670 575 q 639 525 647 525 q 613 543 631 525 l 587 568 l 563 491 q 532 415 538 415 q 467 490 529 415 q 400 566 404 566 q 353 517 388 566 q 307 433 319 468 q 273 385 289 385 q 248 400 260 385 q 236 414 245 404 q 222 431 227 425 q 213 449 217 437 q 209 475 209 461 q 203 496 209 496 q 195 491 201 496 q 157 479 183 479 q 133 500 133 479 q 165 587 133 518 q 195 655 195 652 q 126 699 195 661 q 66 740 80 727 q 52 772 52 753 q 58 811 52 792 q 76 830 65 830 q 102 819 81 830 q 127 807 123 807 z "},"+":{"ha":769,"x_min":14,"x_max":755,"o":"m 340 750 q 347 752 343 750 q 353 755 351 754 q 355 754 354 755 q 384 677 381 677 q 387 697 387 677 q 401 742 387 718 q 429 766 416 766 q 450 722 439 766 q 467 613 461 678 l 473 525 l 560 524 q 680 513 650 522 q 731 472 711 503 q 755 430 755 438 q 728 426 755 426 q 690 427 704 426 l 627 433 l 677 362 q 719 286 719 298 q 709 283 719 283 q 515 309 675 283 l 481 315 l 481 232 q 472 145 481 167 q 426 100 463 123 l 397 81 l 397 144 q 385 208 397 208 q 358 186 380 208 q 293 132 340 165 l 245 100 l 252 161 q 260 218 254 175 q 267 275 266 260 l 273 326 l 170 317 q 96 315 136 315 q 63 319 73 315 q 39 339 53 324 l 14 366 l 47 380 q 80 404 80 392 q 130 425 80 416 l 180 433 l 144 439 q 104 465 109 446 q 104 470 104 467 q 103 475 103 473 q 123 500 103 492 q 198 513 142 507 l 277 519 l 273 593 q 259 701 270 662 q 255 730 255 718 q 264 760 255 745 q 282 774 273 774 q 309 762 285 774 q 340 750 332 750 z "},",":{"ha":427,"x_min":30,"x_max":401,"o":"m 68 237 q 85 266 68 259 q 138 273 102 273 q 239 254 194 273 q 334 199 267 243 q 401 149 401 156 q 250 -114 401 136 q 151 -269 171 -243 q 106 -296 130 -294 q 96 -296 102 -296 q 90 -297 91 -297 q 75 -285 75 -297 q 77 -263 75 -282 q 80 -236 80 -244 q 75 -224 80 -224 q 72 -218 72 -224 q 74 -205 72 -213 q 80 -187 76 -197 q 95 -142 95 -153 l 95 -140 q 84 -153 94 -140 q 62 -171 73 -171 q 41 -156 52 -171 q 30 -126 30 -141 q 47 -73 30 -113 q 83 7 64 -33 q 106 54 103 47 q 109 79 114 79 q 96 76 106 79 q 85 75 92 75 q 75 122 75 75 q 79 166 75 153 q 99 190 84 179 l 122 208 l 99 209 q 77 217 85 209 q 68 237 68 225 z "},"-":{"ha":732,"x_min":35,"x_max":688,"o":"m 283 505 q 479 510 304 507 l 544 510 q 640 500 620 510 q 682 450 659 491 q 688 435 688 441 q 636 426 688 426 q 578 420 578 426 l 628 346 l 678 277 l 625 283 q 334 305 468 305 q 222 300 264 305 q 94 286 117 286 q 47 304 57 286 q 57 339 35 323 q 77 366 77 354 q 125 397 77 380 l 172 415 l 134 416 q 91 438 96 416 q 99 469 85 458 q 283 505 121 488 z "},".":{"ha":332,"x_min":52,"x_max":281,"o":"m 61 0 q 52 4 52 0 q 71 72 52 18 q 95 190 95 138 q 95 203 95 190 q 107 250 95 250 q 163 232 126 250 q 208 201 199 214 q 218 201 218 180 q 247 217 218 221 l 277 214 l 279 104 q 280 84 279 98 q 281 65 281 71 q 274 -14 281 -9 q 210 -26 262 -26 q 194 -12 194 -26 l 194 1 q 176 16 194 16 q 121 8 170 16 q 61 0 73 0 z "},"/":{"ha":544,"x_min":-12,"x_max":559,"o":"m 365 907 q 383 960 365 929 q 419 990 401 990 q 442 962 434 990 q 451 944 445 951 q 463 939 457 937 l 464 939 q 472 910 472 939 q 471 864 472 883 l 465 785 l 481 836 q 529 917 499 887 l 559 945 l 559 887 q 418 461 559 774 q 293 171 412 449 q 212 5 233 30 q 165 -29 195 -12 q 123 -46 136 -46 q 119 -43 119 -46 q 148 49 119 -27 q 178 140 178 133 l 176 140 q 122 110 167 140 q 78 81 114 104 q 30 50 42 57 q -7 34 1 34 q -12 46 -12 34 q 151 388 -12 68 q 365 907 365 812 z "},":":{"ha":332,"x_min":52,"x_max":281,"o":"m 61 514 q 52 518 52 514 q 71 586 52 532 q 95 704 95 652 q 95 718 95 704 q 107 764 95 764 q 163 746 126 764 q 208 715 199 728 q 218 715 218 694 q 247 731 218 735 l 277 728 l 279 618 q 280 598 279 612 q 281 579 281 585 q 274 500 281 505 q 210 488 262 488 q 194 502 194 488 l 194 515 q 176 530 194 530 q 121 522 170 530 q 61 514 73 514 m 61 0 q 52 4 52 0 q 71 72 52 18 q 95 190 95 138 q 95 203 95 190 q 107 250 95 250 q 163 232 126 250 q 208 201 199 214 q 218 201 218 180 q 247 217 218 221 l 277 214 l 279 104 q 280 84 279 98 q 281 65 281 71 q 274 -14 281 -9 q 210 -26 262 -26 q 194 -12 194 -26 l 194 1 q 176 16 194 16 q 121 8 170 16 q 61 0 73 0 z "},";":{"ha":427,"x_min":30,"x_max":401,"o":"m 61 514 q 52 518 52 514 q 71 586 52 532 q 95 704 95 652 q 95 718 95 704 q 107 764 95 764 q 163 746 126 764 q 208 715 199 728 q 218 715 218 694 q 247 731 218 735 l 277 728 l 279 618 q 280 598 279 612 q 281 579 281 585 q 274 500 281 505 q 210 488 262 488 q 194 502 194 488 l 194 515 q 176 530 194 530 q 121 522 170 530 q 61 514 73 514 m 68 237 q 85 266 68 259 q 138 273 102 273 q 239 254 194 273 q 334 199 267 243 q 401 149 401 156 q 250 -114 401 136 q 151 -269 171 -243 q 106 -296 130 -294 q 96 -296 102 -296 q 90 -297 91 -297 q 75 -285 75 -297 q 77 -263 75 -282 q 80 -236 80 -244 q 75 -224 80 -224 q 72 -218 72 -224 q 74 -205 72 -213 q 80 -187 76 -197 q 95 -142 95 -153 l 95 -140 q 84 -153 94 -140 q 62 -171 73 -171 q 41 -156 52 -171 q 30 -126 30 -141 q 47 -73 30 -113 q 83 7 64 -33 q 106 54 103 47 q 109 79 114 79 q 96 76 106 79 q 85 75 92 75 q 75 122 75 75 q 79 166 75 153 q 99 190 84 179 l 122 208 l 99 209 q 77 217 85 209 q 68 237 68 225 z "},"<":{"ha":651,"x_min":4,"x_max":654,"o":"m 564 713 q 585 708 574 713 q 595 693 595 703 q 429 499 595 658 l 302 377 l 338 346 q 454 270 373 315 q 579 209 534 225 q 640 183 627 193 q 654 155 654 174 q 628 127 654 134 q 605 109 605 122 q 587 102 605 102 q 528 109 564 102 q 514 111 514 111 l 513 110 q 536 96 513 109 q 570 65 570 79 q 576 34 570 52 q 579 24 579 26 q 570 19 579 19 q 545 20 556 19 q 330 111 477 31 q 110 254 182 191 l 52 305 l 57 355 q 59 372 57 361 q 61 388 61 384 q 56 405 61 400 q 33 412 50 410 q 12 419 19 415 q 5 427 4 423 q 151 536 9 435 q 385 732 292 636 q 456 798 422 770 q 496 826 490 826 q 508 817 502 826 q 515 796 514 807 q 528 766 518 766 q 537 757 537 766 q 511 699 537 736 l 481 655 l 514 686 q 564 713 543 713 m 146 392 q 102 397 122 397 q 102 377 83 397 q 133 357 119 357 q 157 370 148 357 q 146 392 171 385 z "},"=":{"ha":639,"x_min":24,"x_max":620,"o":"m 54 187 q 107 209 54 209 q 133 220 133 209 q 80 289 133 236 l 24 346 l 66 347 l 298 347 q 494 354 444 347 q 575 365 559 365 q 607 354 594 365 q 620 327 620 343 q 598 298 620 305 q 578 278 578 290 q 567 264 578 273 q 543 252 556 256 q 517 241 517 244 q 533 235 517 239 q 557 203 557 228 q 511 166 557 178 q 294 138 465 155 l 111 122 l 77 156 q 54 187 54 179 m 152 568 q 139 566 149 568 q 123 563 129 563 q 80 571 98 563 l 49 585 l 76 606 q 191 648 103 627 q 354 669 278 669 q 429 667 404 669 q 545 652 518 665 q 583 594 572 639 l 591 564 l 541 572 l 494 579 l 525 513 q 557 433 557 442 q 544 429 557 429 q 469 442 530 429 q 290 460 389 460 q 175 446 216 460 l 136 433 q 102 519 123 460 l 130 544 q 153 567 153 563 q 152 568 153 568 z "},">":{"ha":570,"x_min":-19,"x_max":579,"o":"m 496 515 q 478 524 494 515 q 457 533 463 533 q 430 519 445 533 q 414 501 415 506 q 427 491 414 496 q 513 483 446 483 q 579 475 579 483 q 465 355 579 467 q 229 53 309 202 q 184 18 210 18 q 163 24 168 18 q 157 49 157 30 q 144 83 157 77 q 138 95 138 84 q 151 134 138 100 l 168 182 l 146 153 q 98 123 125 123 q 72 149 72 123 q 126 257 72 168 q 236 419 180 346 q 283 491 283 481 q 176 578 283 510 q 7 665 68 647 q -19 696 -19 673 q -10 715 -19 707 q 12 733 -1 724 q 30 746 26 742 q 62 754 38 754 q 81 753 75 754 l 121 747 l 92 768 q 62 810 62 789 q 85 830 62 830 q 217 785 127 830 q 376 699 297 746 q 481 627 456 651 q 506 560 506 605 q 496 515 506 515 z "},"?":{"ha":606,"x_min":11,"x_max":591,"o":"m 279 -22 q 269 -14 274 -22 q 256 -5 263 -5 q 189 -38 241 -5 q 133 -69 141 -69 q 129 8 129 -69 q 113 110 129 87 q 103 132 103 123 q 149 144 103 144 q 222 132 217 144 q 239 137 229 121 q 269 156 251 156 q 304 136 286 156 q 333 75 313 125 q 353 12 353 26 q 321 -7 353 8 q 279 -22 290 -22 m 164 791 q 90 772 155 791 q 15 754 24 754 q 11 760 11 754 q 43 833 11 768 q 129 939 81 903 q 267 1002 176 975 q 414 1050 346 1025 q 487 1072 476 1072 l 488 1072 q 507 1062 499 1072 q 515 1040 515 1053 q 509 1019 515 1029 q 514 979 498 1002 q 562 894 537 948 q 591 758 591 831 q 562 627 591 685 q 438 464 532 570 q 321 320 332 343 q 273 286 305 286 q 252 294 258 286 q 229 300 244 307 q 222 297 224 297 q 216 312 216 297 q 218 347 216 317 q 221 381 221 376 q 218 389 221 389 q 209 378 217 389 q 193 347 193 354 q 168 312 193 339 q 136 285 144 285 q 129 309 129 285 q 152 412 129 362 q 259 568 176 467 q 346 686 324 651 q 368 746 368 720 q 358 788 368 764 q 340 812 349 812 q 294 789 326 812 q 254 747 263 766 q 213 715 247 734 q 161 697 179 697 q 153 699 155 697 l 153 703 q 160 745 153 711 q 167 785 167 779 q 165 791 167 789 l 164 791 m 484 941 q 463 941 484 956 q 465 932 449 932 q 484 941 484 932 m 473 848 q 469 855 473 853 q 458 854 465 857 q 442 846 452 852 q 439 822 426 836 q 463 823 453 808 q 473 848 473 840 z "},"@":{"ha":1169,"x_min":16,"x_max":1154,"o":"m 563 69 q 565 63 563 66 q 567 58 567 60 q 525 46 567 46 q 495 49 517 46 q 394 93 442 57 q 320 179 346 129 q 298 264 298 222 q 368 476 298 338 q 423 556 403 549 q 446 552 444 564 q 484 541 449 541 q 633 488 553 541 q 689 460 677 460 q 709 448 696 460 q 730 437 723 437 q 735 438 734 437 q 754 425 745 442 q 761 415 758 416 q 767 415 764 414 q 780 426 770 416 q 806 444 798 444 q 844 278 823 444 l 857 153 l 894 171 q 937 203 932 190 q 948 226 939 206 q 964 259 958 245 l 985 304 l 970 392 q 903 609 947 529 q 880 637 891 632 q 829 647 869 642 q 684 652 774 652 l 671 652 q 460 623 540 651 q 308 526 380 595 q 231 429 251 469 q 212 321 212 388 q 222 213 212 254 q 278 132 232 179 q 388 42 324 84 q 464 -31 446 4 l 480 -66 q 477 -68 479 -68 q 429 -56 467 -68 q 385 -38 391 -43 q 370 -31 377 -30 q 363 -43 363 -33 q 427 -160 363 -66 q 435 -175 437 -174 q 414 -171 433 -176 q 176 -4 305 -142 q 62 227 83 95 q 49 286 53 286 q 41 274 46 286 q 23 251 30 251 q 16 281 16 251 q 24 373 16 309 q 121 580 39 477 q 321 741 203 682 q 463 788 389 774 q 654 803 536 802 l 667 803 q 876 796 802 803 q 939 792 922 792 q 958 799 958 792 q 958 800 958 800 l 956 803 q 954 811 954 811 q 958 815 954 815 q 1004 773 966 815 q 1076 637 1050 720 q 1123 397 1103 553 q 1149 281 1137 293 q 1154 269 1154 275 q 1130 199 1154 254 q 1029 62 1085 103 q 865 3 972 20 q 826 0 852 0 q 713 35 765 0 q 684 46 699 46 q 680 80 680 46 q 680 94 680 84 q 681 109 681 103 q 682 155 682 125 q 681 178 682 178 q 644 155 675 178 q 590 109 613 132 q 563 69 563 81 m 962 724 q 952 734 962 734 q 947 726 939 734 q 962 724 956 719 m 864 703 q 864 705 873 704 q 849 705 859 705 l 827 703 l 830 703 q 864 703 846 700 m 962 704 q 940 708 962 708 q 928 708 932 708 q 924 706 925 708 q 925 701 924 704 q 930 692 926 699 q 945 675 940 675 q 955 686 948 675 q 962 704 962 697 m 467 460 q 456 460 458 472 q 453 450 454 456 q 452 439 450 439 q 460 444 453 438 q 467 460 471 453 m 140 392 q 136 418 140 416 q 127 410 133 418 q 132 384 123 404 l 138 372 q 140 392 140 373 m 587 328 q 550 351 587 335 q 503 366 513 366 q 473 340 481 366 q 458 277 458 297 q 476 247 458 259 l 498 233 l 543 278 q 587 328 587 323 m 1058 241 q 1057 278 1069 248 q 1046 297 1047 297 q 1044 286 1044 297 q 1036 251 1044 267 q 1039 235 1027 235 q 1058 241 1047 235 m 490 134 q 494 148 500 145 q 480 132 484 145 q 490 134 480 125 m 773 95 q 788 103 788 95 q 779 111 788 111 q 766 102 770 111 q 773 95 768 96 z "},"A":{"ha":795,"x_min":-18,"x_max":784,"o":"m 500 998 q 514 1053 500 1053 q 521 1050 518 1053 q 557 986 534 1039 q 600 873 581 933 q 708 452 632 769 q 784 102 784 136 q 764 29 784 71 q 732 -12 745 -12 q 708 65 722 -12 q 680 161 690 161 q 633 84 669 161 q 579 -8 590 -8 q 557 79 570 -8 q 532 196 543 176 q 475 216 521 216 l 449 216 q 391 216 406 216 q 353 210 376 216 q 325 201 330 203 q 307 178 320 198 q 289 145 293 159 q 270 92 285 132 q 218 -25 239 5 q 156 -81 198 -56 q 126 -95 133 -95 q 119 -85 119 -95 q 146 4 119 -77 q 172 83 172 77 q 168 88 172 88 q 71 27 155 88 q -16 -26 -3 -26 q -18 -22 -18 -26 q 79 228 -18 -9 q 269 887 269 696 q 285 958 269 925 q 317 990 301 990 q 336 977 328 990 q 343 952 343 964 q 354 933 343 933 q 359 936 358 933 q 361 942 361 939 q 360 949 361 945 q 358 958 359 954 q 357 966 357 963 q 368 989 357 979 q 393 1000 378 1000 q 411 995 399 1000 q 429 990 423 990 q 441 997 437 990 q 444 998 442 998 q 477 962 454 998 q 510 891 500 925 q 521 871 517 871 q 522 875 522 871 q 510 926 522 887 q 500 998 500 955 m 380 792 q 390 823 384 792 q 396 861 396 854 q 387 879 396 879 q 377 833 377 879 q 380 792 377 792 m 490 450 q 470 578 490 463 q 446 694 450 694 q 410 558 442 694 q 378 415 378 422 q 388 414 378 414 q 437 416 396 414 q 484 429 479 420 q 490 450 490 435 z "},"B":{"ha":845,"x_min":14,"x_max":844,"o":"m 132 971 q 151 957 136 971 q 174 943 167 943 q 241 979 180 943 q 349 1036 319 1027 q 430 1051 391 1051 q 665 944 532 1051 q 745 890 731 890 q 754 867 754 890 q 716 735 754 803 q 629 636 686 686 l 568 582 l 616 571 q 844 336 844 514 q 818 213 844 283 q 764 117 793 148 q 692 80 735 85 q 661 77 665 77 q 651 81 651 77 q 659 102 651 85 q 667 119 667 118 q 662 123 667 123 q 613 104 655 123 q 399 32 562 81 q 168 -31 236 -18 q 113 -38 136 -38 q 83 -26 96 -38 q 71 -1 71 -15 q 87 21 71 9 q 103 46 103 33 q 134 72 103 65 q 165 91 165 79 q 142 99 165 99 q 109 115 121 99 q 98 123 103 123 q 56 98 87 123 l 14 62 l 20 100 q 102 791 102 499 l 102 853 q 117 962 102 947 q 132 971 126 971 m 461 822 q 425 848 430 848 q 361 819 420 848 q 313 790 321 800 q 305 751 305 780 q 298 678 305 709 q 301 644 293 644 q 400 720 312 644 l 490 799 l 461 822 m 637 795 q 652 804 643 795 q 661 821 661 812 q 652 838 661 830 q 636 846 643 846 q 627 821 627 846 q 637 795 627 795 m 442 400 q 346 408 382 408 q 339 408 345 408 q 332 407 334 407 l 288 404 l 281 308 q 277 224 277 255 q 278 209 277 210 l 279 209 q 379 243 293 209 q 514 305 465 278 q 601 336 576 336 l 604 336 q 621 335 617 334 q 623 339 625 336 q 610 350 621 342 q 442 400 576 378 m 151 165 q 175 189 175 168 q 170 194 175 194 q 144 178 157 194 q 136 167 137 170 q 139 164 136 164 q 151 165 142 164 z "},"C":{"ha":727,"x_min":0,"x_max":715,"o":"m 26 678 q 15 675 23 678 q 5 671 7 671 q 0 677 0 671 q 33 751 0 689 q 62 821 62 811 q 113 879 62 830 q 201 954 164 928 q 343 1002 271 1002 q 544 948 414 1002 q 677 902 655 902 q 701 883 688 902 q 715 849 715 864 q 688 830 715 842 q 661 810 661 818 q 647 802 661 802 q 595 810 629 802 q 553 822 560 818 q 545 823 547 826 q 547 818 544 821 q 586 795 553 808 q 628 732 628 776 q 616 720 628 720 q 438 777 595 720 q 362 799 377 799 q 335 789 349 799 q 279 728 307 770 q 256 678 260 699 q 251 600 251 658 l 251 543 q 267 340 252 438 q 298 221 281 241 q 372 206 311 206 q 434 215 418 206 q 495 270 450 224 q 555 345 555 332 q 571 355 555 355 q 592 349 583 355 q 604 335 601 342 q 613 314 608 328 q 621 294 618 300 q 628 271 628 281 q 620 240 628 256 l 610 218 l 612 218 q 628 231 613 218 q 663 244 642 244 q 693 225 693 244 q 631 121 693 195 l 591 75 l 643 81 q 675 83 656 83 q 689 79 689 83 l 689 77 q 632 36 680 62 q 537 -5 585 9 q 426 -56 484 -22 q 346 -81 378 -81 q 288 -52 309 -81 q 266 -11 266 -23 q 210 24 266 -3 q 99 155 130 64 q 52 491 68 247 q 26 678 41 678 m 164 697 q 171 705 167 697 q 176 721 175 713 q 170 730 176 728 q 160 713 160 730 q 164 697 160 697 z "},"D":{"ha":792,"x_min":12,"x_max":779,"o":"m 71 905 q 58 960 58 949 q 70 984 58 971 q 92 997 81 997 q 111 989 99 997 q 126 985 126 981 q 125 990 125 986 q 193 1036 125 1013 q 296 1050 228 1050 q 486 1017 412 1050 q 643 900 549 987 q 760 761 736 812 q 779 670 779 718 q 773 545 779 662 q 750 346 766 415 q 696 208 734 277 q 673 151 673 165 q 678 141 673 146 q 684 133 684 136 q 635 100 684 127 q 551 64 587 73 q 427 45 515 54 q 320 29 349 37 q 275 7 292 22 q 244 -16 250 -16 q 239 1 239 -16 q 236 12 239 9 q 222 15 233 15 q 139 5 214 15 q 52 -4 64 -4 q 18 15 18 -4 q 34 69 18 43 q 72 104 50 95 q 92 117 92 114 q 81 119 94 118 q 37 146 61 119 l 12 172 q 54 183 26 176 q 96 194 83 190 l 103 269 q 111 454 111 350 q 71 905 111 755 m 184 937 q 195 954 195 944 q 179 970 195 963 q 168 970 170 972 q 168 959 165 968 q 175 936 175 943 q 184 937 175 932 m 369 848 q 304 859 328 859 q 283 844 283 859 q 286 822 283 838 q 321 422 311 673 q 334 264 327 281 q 355 248 339 248 q 432 269 384 248 q 494 305 480 289 q 572 507 551 366 l 583 587 l 543 663 q 456 786 505 735 q 369 848 408 837 z "},"E":{"ha":663,"x_min":-9,"x_max":686,"o":"m 118 949 q 78 957 102 949 q 54 972 54 964 q 60 983 54 978 q 351 1078 109 1040 q 524 1092 446 1092 l 534 1092 q 627 1080 600 1092 q 671 1029 654 1067 l 686 997 l 570 997 l 591 963 q 636 886 606 939 l 658 845 l 618 852 q 400 872 514 872 q 390 871 396 872 q 382 871 384 871 q 370 867 373 869 q 363 859 366 865 q 361 841 361 853 l 372 690 l 374 690 q 429 696 377 690 q 496 703 481 703 q 543 688 528 703 q 567 640 559 674 q 570 624 570 627 q 534 613 570 613 q 498 602 498 613 q 514 567 498 600 q 540 503 526 545 l 548 472 l 465 473 q 453 474 461 473 q 442 475 445 475 q 369 469 380 475 q 357 391 357 463 q 349 231 357 328 q 345 171 345 190 q 359 141 345 141 q 460 158 381 141 q 566 184 538 175 q 602 191 583 191 q 635 160 635 191 q 624 136 635 142 q 617 109 617 132 q 585 76 617 91 q 545 54 545 57 q 552 53 545 53 q 575 54 566 53 q 581 55 578 54 q 586 56 583 56 q 629 37 612 56 q 642 16 642 22 q 610 -3 642 9 q 456 -46 566 -22 q 224 -104 372 -64 q 81 -136 109 -136 q 31 -111 64 -136 q -1 -75 -1 -87 l -1 -72 q 54 -58 0 -69 q 107 -41 107 -46 q 50 15 107 -27 q -9 72 -9 60 q 16 84 -9 77 q 68 97 41 91 q 99 104 96 103 q 131 292 106 111 q 164 578 156 472 q 168 704 168 647 q 152 826 168 826 l 151 826 l 149 825 q 118 863 138 825 l 96 905 l 127 930 q 152 954 152 952 q 149 956 152 956 q 136 953 146 956 q 118 949 125 949 m 227 121 q 238 121 227 121 q 250 136 250 121 q 247 151 250 151 q 224 136 245 151 q 227 121 203 121 z "},"F":{"ha":681,"x_min":-24,"x_max":694,"o":"m 81 827 q 105 842 81 827 q 129 860 129 856 q 52 897 129 864 q -24 935 -24 929 q 31 966 -24 943 q 136 1004 85 989 q 288 1028 194 1021 q 499 1034 359 1034 q 684 1025 670 1034 q 694 1008 694 1019 q 675 979 694 996 q 661 944 661 966 q 616 926 661 935 q 572 916 572 917 q 595 913 572 913 q 648 884 629 913 q 659 850 666 857 q 500 836 651 842 q 453 833 477 834 q 410 830 429 831 q 376 828 392 829 q 353 827 361 827 l 345 826 q 343 796 343 826 q 350 667 343 739 l 357 598 q 480 602 397 600 q 604 606 563 605 l 628 571 q 652 525 652 534 q 604 514 652 517 l 555 511 l 575 483 q 621 415 593 461 l 646 374 l 524 382 q 378 393 392 391 l 354 399 l 354 227 q 351 77 354 111 q 332 15 347 42 q 282 -45 308 -26 l 254 -65 l 262 34 q 264 100 264 83 q 262 130 264 130 q 186 58 252 130 q 115 -8 125 -8 q 114 5 114 -8 q 119 83 114 39 q 133 307 127 153 q 144 475 138 454 q 148 494 148 491 q 140 525 148 509 q 140 553 127 547 q 151 661 151 562 l 151 761 l 121 761 q 66 774 98 761 q 34 795 34 787 q 81 827 34 799 z "},"G":{"ha":754,"x_min":12,"x_max":732,"o":"m 175 952 q 187 936 182 952 q 199 920 193 920 q 250 940 209 920 q 363 987 315 971 q 553 1006 425 1006 q 720 983 705 1006 q 727 968 727 974 q 709 945 727 960 q 692 913 692 930 q 647 892 692 903 l 602 883 q 624 880 602 880 q 663 861 642 880 q 684 826 684 841 q 636 812 684 812 l 560 812 q 455 798 495 812 q 336 732 415 784 l 259 682 l 241 595 q 218 427 227 522 q 216 397 218 416 q 214 372 214 378 q 220 336 214 349 q 248 289 227 323 q 331 182 285 233 l 374 132 l 415 151 q 434 159 423 155 q 450 167 445 164 l 457 170 q 475 275 460 171 q 491 396 491 378 q 465 408 491 408 q 363 397 401 408 l 359 397 q 345 427 345 397 q 353 457 345 448 q 359 481 366 473 q 366 494 357 486 q 388 510 374 503 q 412 524 410 519 q 399 526 406 526 q 376 538 385 526 q 366 564 366 551 q 373 585 366 578 q 532 600 384 595 l 600 600 q 694 589 673 600 q 727 540 716 578 q 732 515 732 524 q 711 506 732 506 q 689 490 689 506 q 690 475 689 480 q 701 377 701 406 q 693 353 701 355 q 678 153 680 349 l 677 -42 l 647 -68 q 617 -88 627 -88 q 598 -43 598 -88 l 598 -18 l 553 -42 q 483 -85 499 -69 q 460 -98 460 -106 q 414 -91 460 -91 l 388 -91 q 353 -92 374 -92 q 273 -66 315 -92 q 132 87 214 -27 q 26 274 49 202 q 12 370 12 323 q 33 543 12 423 q 136 924 90 873 q 175 952 163 952 m 213 810 q 198 783 208 810 q 189 742 189 755 q 190 738 189 738 q 212 774 198 738 q 214 810 224 804 l 213 810 m 429 58 q 423 43 418 50 q 439 37 429 37 q 449 47 449 37 q 438 61 449 61 q 429 58 434 61 z "},"H":{"ha":808,"x_min":31,"x_max":761,"o":"m 157 960 q 165 964 159 960 q 175 968 172 968 q 193 920 183 968 q 213 838 209 838 q 216 879 216 838 q 231 951 217 916 q 258 987 245 987 q 281 903 273 987 q 290 722 290 819 q 302 606 290 606 l 305 606 q 419 620 326 613 l 521 628 l 526 772 q 541 922 530 886 q 591 1001 551 958 q 609 1016 604 1016 q 625 895 621 1016 l 628 821 l 671 878 q 738 968 712 935 l 761 1001 l 761 924 q 739 616 761 842 q 722 288 722 425 q 741 61 722 134 q 746 23 746 43 q 736 -16 746 5 q 716 -38 727 -38 q 692 -14 708 -38 q 662 7 678 7 l 659 7 l 658 5 q 655 5 656 5 q 632 46 643 5 q 606 127 610 127 q 605 122 605 126 q 608 94 605 118 q 610 64 610 71 q 595 9 610 33 q 570 -18 579 -18 q 536 119 555 -18 q 517 372 518 255 q 503 392 517 387 q 441 401 490 397 q 372 406 376 406 q 326 403 347 406 l 283 396 l 278 212 q 262 19 273 61 q 206 -66 251 -23 l 171 -99 l 187 125 l 148 77 q 75 -3 113 34 q 31 -39 38 -39 l 31 -34 q 46 136 31 9 q 71 426 65 305 q 81 553 73 500 q 88 711 88 605 l 88 770 q 87 802 88 781 q 85 831 85 822 q 98 996 85 971 q 113 1012 104 1012 q 133 999 122 1012 q 148 974 144 986 q 157 960 152 960 m 510 515 q 517 522 511 515 q 524 533 524 529 q 517 537 524 537 q 506 526 506 537 q 510 515 506 515 z "},"I":{"ha":339,"x_min":43,"x_max":301,"o":"m 43 935 q 52 967 43 949 q 68 985 60 985 q 98 960 79 985 q 129 945 118 935 q 133 947 130 947 q 159 894 145 947 q 180 822 179 822 q 182 829 182 822 q 179 864 182 834 q 179 876 179 864 q 191 943 179 911 q 217 975 203 975 q 272 689 243 975 q 301 201 301 403 q 290 72 301 100 q 255 21 282 50 q 216 -8 228 -8 q 212 27 212 -8 q 214 78 212 41 q 216 127 216 115 q 210 163 216 163 q 136 91 201 163 l 72 18 l 72 403 q 54 864 72 783 q 43 935 43 909 z "},"J":{"ha":667,"x_min":8,"x_max":647,"o":"m 326 1039 q 491 1050 369 1050 l 618 1050 l 633 1012 q 647 971 647 978 q 632 962 647 962 q 612 963 620 962 l 574 967 l 601 895 q 624 819 624 833 q 623 814 624 818 q 623 804 623 810 q 629 703 623 774 q 632 609 632 671 q 598 304 632 456 q 513 80 564 153 q 433 12 488 46 q 328 -33 378 -22 q 282 -38 308 -38 q 88 79 168 -38 q 8 365 8 195 q 9 380 8 369 q 9 397 9 392 q 34 477 14 467 q 47 483 45 483 q 68 465 56 483 q 99 442 83 442 q 122 391 111 442 q 132 354 130 354 q 134 373 134 354 q 163 423 137 407 q 194 442 190 442 q 199 387 199 442 q 248 210 199 270 l 273 179 l 309 216 q 429 633 426 328 l 429 648 q 420 807 429 766 q 407 842 414 836 q 372 848 400 848 q 317 833 335 848 q 308 825 308 823 q 309 829 308 826 q 312 838 312 836 q 297 875 312 856 q 277 917 277 901 q 300 949 277 933 q 317 964 317 963 q 300 960 317 966 q 277 958 286 958 q 239 965 256 958 q 221 982 221 972 q 253 1012 221 994 q 326 1039 285 1029 m 446 153 q 435 163 446 163 q 388 149 416 163 l 355 134 l 385 126 q 401 125 391 125 q 433 133 419 125 q 446 153 446 141 z "},"K":{"ha":758,"x_min":54,"x_max":766,"o":"m 125 962 q 133 965 126 962 q 142 968 140 968 q 183 873 161 968 l 193 831 l 191 886 l 191 895 q 205 975 191 940 q 221 1001 217 1001 q 233 991 228 1001 q 258 922 245 975 q 271 827 270 869 q 276 777 271 807 q 288 747 281 747 q 324 777 294 747 q 465 914 422 875 l 571 1009 l 620 1002 q 673 991 673 997 q 625 940 673 985 l 574 891 l 612 886 q 653 880 617 884 q 708 872 689 875 l 766 864 l 654 777 q 449 614 534 686 l 355 534 l 373 503 q 527 313 411 441 q 716 127 643 186 q 741 90 741 109 q 708 66 741 66 q 677 56 677 66 q 665 46 677 46 q 606 73 648 46 l 564 103 l 593 69 q 623 3 623 37 q 609 -18 623 -18 q 416 138 575 -18 l 293 262 l 289 175 q 280 94 286 111 q 245 49 274 77 l 206 8 l 206 95 q 198 187 206 179 q 127 115 187 187 q 57 41 66 41 l 57 58 q 66 336 57 115 q 75 675 75 528 q 58 917 75 887 q 54 940 54 924 q 62 971 54 956 q 81 986 71 986 q 110 971 98 986 q 125 962 118 962 z "},"L":{"ha":651,"x_min":-5,"x_max":662,"o":"m 84 951 q 117 989 84 989 q 138 978 132 989 q 161 971 145 966 q 163 971 163 971 l 165 972 q 206 895 187 972 l 216 857 l 217 903 q 231 990 217 947 l 243 1032 l 262 997 q 294 844 283 954 q 309 480 304 735 l 315 159 l 407 184 q 544 233 486 206 q 606 252 585 252 q 609 252 608 252 q 612 251 610 251 q 629 222 629 247 q 617 189 629 201 q 617 176 605 176 q 629 171 629 176 q 583 129 629 160 q 556 106 556 109 q 606 118 593 118 q 637 104 620 118 l 662 84 l 628 64 q 465 -3 597 43 q 236 -88 399 -26 q 118 -129 129 -129 q 83 -116 109 -129 q 39 -90 57 -103 q 53 -71 33 -83 q 68 -35 68 -60 l 68 -23 q 57 9 65 -1 q 24 33 49 20 q -5 57 -5 49 q 41 81 -5 68 q 73 98 66 90 q 84 142 80 107 q 110 613 110 358 q 91 907 110 838 q 84 951 84 932 m 121 -41 q 136 -28 134 -33 q 129 -20 138 -24 q 123 -19 127 -19 q 102 -28 113 -19 q 92 -46 92 -37 q 96 -50 92 -50 q 121 -41 103 -50 z "},"M":{"ha":1065,"x_min":54,"x_max":1010,"o":"m 791 47 q 794 267 791 88 q 798 481 798 446 q 789 570 798 570 q 787 568 788 570 q 711 469 766 552 q 637 343 656 387 q 581 278 610 278 q 555 288 566 278 q 545 315 545 298 q 534 335 545 335 q 529 369 522 335 q 528 392 534 399 q 525 388 526 391 q 514 350 514 372 q 495 282 514 327 l 475 235 l 425 335 q 321 534 358 467 l 267 635 l 259 593 q 252 381 252 556 q 262 114 252 187 q 267 61 267 68 q 254 19 267 39 l 237 -7 l 216 19 q 180 42 194 45 l 179 42 q 142 144 160 42 q 137 141 140 163 q 136 126 136 136 q 119 56 134 94 q 92 18 104 18 q 60 197 76 18 q 54 452 54 263 q 71 935 54 857 q 121 1021 80 978 q 165 1062 161 1062 l 165 1050 q 162 986 165 1039 q 159 916 159 933 q 164 883 159 883 q 244 954 174 883 l 315 1025 l 308 977 q 305 951 305 958 q 322 900 305 929 q 411 769 339 871 q 530 591 525 600 q 537 587 532 587 q 636 715 552 587 q 770 898 742 869 q 807 956 807 935 l 807 966 q 804 983 804 979 q 814 1021 804 1006 q 838 1036 825 1036 q 869 1012 857 1036 q 891 1001 880 990 q 907 985 901 1010 q 910 971 909 979 q 933 868 929 868 q 935 910 935 868 q 962 993 936 959 l 987 1025 l 993 998 q 1004 499 996 982 l 1010 23 l 982 -20 q 945 -65 954 -65 q 937 -42 941 -65 q 928 16 932 -19 q 925 84 925 52 l 925 136 l 902 107 q 850 30 880 80 q 802 -41 810 -41 q 791 47 791 -41 z "},"N":{"ha":807,"x_min":46,"x_max":768,"o":"m 58 157 q 63 458 58 217 q 68 757 68 699 q 60 873 68 864 q 46 913 46 891 q 72 943 46 943 q 98 936 85 943 q 115 929 110 929 q 119 935 119 929 q 127 945 119 945 q 160 922 141 945 q 182 897 165 916 q 205 872 199 879 l 227 846 l 205 886 q 182 963 182 926 q 191 998 182 998 q 239 955 201 998 q 278 901 278 911 q 293 898 278 892 q 309 882 309 903 q 498 544 309 859 q 507 533 505 533 q 513 587 513 533 q 511 694 513 647 q 511 737 511 711 q 510 774 510 764 q 521 901 510 868 q 570 963 532 933 l 606 991 l 598 894 q 595 833 595 848 q 600 799 595 799 q 640 841 610 799 q 712 916 670 882 q 749 941 743 941 q 751 939 751 941 l 749 925 q 730 686 742 903 q 726 496 726 621 q 757 84 726 235 q 768 1 768 27 q 746 -45 768 -45 q 715 -20 731 -45 q 690 -11 699 3 q 685 -15 689 -15 q 643 81 674 -15 q 639 79 640 88 q 637 49 637 69 q 616 -24 637 4 l 595 -50 l 579 5 q 551 167 562 73 q 528 259 538 259 q 513 170 521 259 q 499 80 506 80 q 490 84 494 80 q 419 214 479 94 q 317 423 326 406 l 274 519 l 262 397 q 247 164 247 251 q 229 39 245 52 q 214 31 221 31 q 191 50 209 31 q 167 68 174 68 q 163 66 164 68 l 161 66 q 154 74 157 66 q 146 93 151 81 q 140 115 142 104 q 134 137 137 126 q 130 151 132 148 l 121 182 l 121 144 q 102 91 119 117 q 72 65 85 65 q 58 110 58 65 l 58 157 z "},"O":{"ha":829,"x_min":3,"x_max":810,"o":"m 305 1028 q 384 1073 362 1073 q 439 1057 406 1073 q 473 1034 473 1042 q 528 1005 473 1020 q 690 911 618 979 q 789 751 761 842 q 810 540 810 684 q 791 324 810 403 q 659 72 754 178 q 621 22 621 28 q 636 18 621 18 q 646 14 646 18 q 590 -14 646 5 q 472 -46 534 -33 q 311 -65 374 -65 q 125 15 179 -65 q 72 170 94 62 q 40 360 50 278 q 22 442 30 442 q 16 439 19 442 q 3 458 4 442 q 23 577 4 492 q 52 674 42 662 q 102 761 71 697 q 198 912 141 837 q 305 1028 255 987 m 476 945 q 422 956 444 956 q 359 929 384 956 l 335 901 l 359 918 q 445 936 384 936 q 487 940 487 936 q 476 945 487 941 m 609 593 q 593 720 609 678 q 530 793 578 761 q 423 826 479 826 q 393 823 415 826 q 287 675 342 814 q 232 422 232 537 q 235 381 232 406 q 260 246 243 321 q 285 159 277 171 q 304 153 289 153 q 366 163 323 153 q 436 185 414 172 q 494 233 458 198 q 570 346 549 292 q 609 593 609 453 m 571 107 q 597 141 597 133 q 594 144 597 144 q 567 132 587 144 q 487 103 549 121 l 429 84 l 464 66 q 499 56 486 56 q 571 107 521 56 z "},"P":{"ha":811,"x_min":-18,"x_max":807,"o":"m 115 64 q 123 201 115 95 q 132 336 132 307 q 123 425 132 380 q 109 521 109 503 q 114 538 109 534 q 134 543 119 541 l 164 545 l 164 639 q 140 795 164 795 q 137 794 138 795 q 134 793 136 793 q 126 792 132 792 q 102 803 113 792 q 91 830 91 814 q 80 852 91 852 q 69 861 69 852 q 100 914 69 880 q 125 944 125 941 q 123 945 125 945 q 85 921 117 945 q 18 888 53 897 l -18 880 l 8 926 q 81 1001 28 964 q 195 1057 133 1038 q 311 1069 233 1069 l 343 1069 q 505 1039 444 1066 q 680 932 583 1002 q 795 826 776 861 q 807 747 807 803 q 787 684 807 684 q 776 703 776 684 q 765 731 776 723 l 764 731 q 754 674 754 731 q 671 474 754 578 q 445 288 589 370 l 354 235 l 354 148 q 345 46 354 73 q 302 3 335 19 q 278 -5 286 -5 q 259 57 259 -5 l 259 94 l 227 69 q 160 22 189 41 l 125 -1 l 118 33 q 115 64 115 43 m 278 811 q 272 861 277 849 q 256 872 267 872 q 239 869 239 872 l 241 863 q 250 838 244 854 q 259 808 255 821 l 281 751 l 278 811 m 445 831 q 346 873 381 873 q 334 865 334 873 q 345 817 334 860 q 362 635 355 776 l 369 495 l 445 544 q 566 700 566 625 q 541 758 566 731 q 445 831 517 784 z "},"Q":{"ha":760,"x_min":8,"x_max":757,"o":"m 50 274 q 43 271 49 274 q 35 267 38 267 q 11 387 20 267 q 8 439 8 422 q 52 673 8 534 q 127 840 84 773 q 252 977 171 906 q 342 1031 315 1031 q 365 1016 365 1031 q 362 994 365 1012 q 359 970 359 977 q 365 958 359 958 q 362 936 374 958 q 359 932 361 935 l 343 907 l 410 894 q 541 858 494 878 q 627 803 587 838 q 728 586 726 713 q 738 525 731 525 q 745 500 745 525 q 724 340 745 461 q 683 183 707 236 q 606 76 659 130 l 556 22 l 631 -1 q 757 -103 757 -41 q 747 -136 757 -114 q 728 -157 738 -157 q 699 -136 723 -157 q 659 -110 669 -110 q 650 -140 650 -110 q 637 -199 650 -155 q 613 -243 624 -243 q 571 -220 604 -243 q 435 -160 524 -187 q 290 -133 346 -133 q 264 -134 271 -133 q 260 -135 263 -134 q 256 -136 258 -136 q 238 -127 245 -136 q 231 -106 231 -118 q 237 -83 231 -95 q 244 -68 244 -72 q 228 -47 244 -60 q 130 76 168 -5 q 77 216 92 157 q 50 274 61 274 m 430 690 q 305 712 362 712 q 270 692 279 712 q 244 593 260 671 q 232 471 232 532 q 271 248 232 362 q 305 163 293 186 q 334 140 317 140 q 366 153 343 140 q 491 312 475 222 q 496 338 494 324 q 500 359 499 351 q 502 370 502 366 q 494 382 502 382 q 479 380 490 382 q 463 378 465 376 q 465 393 460 381 q 513 587 513 511 q 494 654 513 632 q 430 690 476 677 m 590 335 q 610 378 594 335 q 625 430 625 420 q 621 437 625 437 q 602 423 616 437 q 585 353 585 406 q 590 335 585 335 m 153 366 q 144 403 153 384 q 134 408 136 418 q 144 372 134 391 q 153 366 152 357 z "},"R":{"ha":814,"x_min":47,"x_max":819,"o":"m 122 864 l 125 864 q 157 814 140 864 l 175 761 l 175 802 q 194 869 175 840 q 208 891 208 890 q 205 892 208 892 q 176 887 199 892 l 155 880 q 151 880 155 880 q 123 902 123 880 q 124 906 123 903 q 125 911 125 909 q 119 952 127 941 q 118 960 118 955 q 172 998 118 983 l 203 1006 l 170 1008 q 101 1017 132 1009 q 71 1032 71 1024 q 115 1062 71 1040 q 205 1081 157 1081 q 374 1060 305 1081 q 526 985 444 1039 q 678 792 646 905 q 703 735 694 735 q 739 764 711 735 l 766 793 l 766 768 q 699 637 766 716 q 510 467 632 557 q 439 406 439 414 q 533 300 439 395 q 673 171 627 206 q 774 103 746 118 q 819 54 819 81 q 803 30 819 30 q 777 26 783 30 q 764 12 770 23 q 749 4 760 4 q 711 14 745 4 q 675 24 677 24 l 674 23 q 689 9 674 22 q 712 -41 712 -11 q 693 -65 712 -65 q 567 6 667 -65 q 358 174 467 77 l 273 248 l 279 133 q 282 58 282 65 q 259 -18 282 19 q 255 -23 256 -20 q 220 -61 227 -61 l 218 -61 q 201 26 208 -54 l 194 107 l 167 75 q 107 -11 137 38 q 68 -58 79 -58 l 66 -58 q 61 80 61 -56 q 64 328 61 140 q 68 566 68 515 q 56 765 68 696 q 47 846 47 814 q 68 905 47 905 q 94 884 75 905 q 122 864 113 864 m 308 876 q 244 892 271 892 q 225 884 225 892 q 235 844 225 873 q 263 667 251 788 q 279 536 277 536 q 376 619 289 536 q 467 716 463 703 q 468 728 468 720 q 422 805 468 762 q 308 876 376 848 z "},"S":{"ha":699,"x_min":-1,"x_max":675,"o":"m 60 75 q 71 81 65 75 q 80 88 76 88 q 125 64 90 88 q 187 26 180 26 l 189 26 q 163 56 189 30 q 123 118 123 95 q 127 134 123 125 q 137 142 132 142 q 214 103 155 142 q 339 37 292 53 l 389 18 l 425 54 q 461 104 461 91 q 405 170 461 117 q 288 271 349 224 q 184 377 232 313 q 113 502 137 441 q 90 673 91 562 l 85 783 l 138 869 q 214 959 191 955 q 255 962 239 962 q 473 913 355 962 q 612 865 575 873 q 662 826 662 856 q 636 798 662 810 q 616 774 616 788 q 575 766 616 766 q 540 762 540 766 l 574 742 q 585 696 585 707 q 568 682 585 682 q 444 715 545 682 l 340 747 l 311 712 q 282 646 282 677 q 333 526 282 590 q 463 423 384 463 q 559 342 505 401 q 646 227 614 283 q 675 114 675 170 q 572 -95 675 -7 q 393 -171 487 -171 q 217 -121 316 -171 q 72 -31 136 -80 q 1 46 8 19 q -1 64 -1 60 q 18 90 -1 90 q 38 82 23 90 q 60 75 53 75 m 454 328 q 412 346 419 346 q 407 338 407 346 q 423 295 407 324 q 461 244 439 266 l 503 203 l 503 244 q 495 298 503 283 q 454 328 487 312 z "},"T":{"ha":723,"x_min":8,"x_max":738,"o":"m 43 758 q 20 770 30 758 q 11 795 11 781 q 27 819 11 819 q 33 823 31 819 q 33 837 34 827 q 31 848 31 846 q 65 876 31 861 l 106 891 l 73 892 q 28 905 49 894 q 8 929 8 917 q 121 973 8 949 q 374 1012 235 997 q 533 1019 406 1016 l 570 1019 q 666 1008 643 1019 q 718 952 689 997 l 738 922 l 667 929 q 620 932 632 932 q 595 928 595 932 q 620 892 595 920 q 673 826 647 863 q 699 783 699 789 q 692 780 699 780 q 597 790 663 780 q 513 802 530 800 l 456 808 l 463 585 q 476 218 472 298 l 483 75 l 449 37 q 407 3 420 3 l 406 3 q 395 91 395 8 l 395 171 l 365 137 q 335 103 359 130 q 300 62 311 76 q 259 26 269 26 l 258 26 q 255 102 255 28 q 259 368 255 164 q 263 640 263 572 q 262 745 263 732 l 255 800 l 208 793 q 98 769 156 785 q 43 758 54 758 m 381 758 q 381 796 385 777 q 377 793 378 806 q 377 777 377 788 q 380 754 377 753 q 381 758 380 755 z "},"U":{"ha":731,"x_min":49,"x_max":703,"o":"m 368 7 q 378 -9 368 4 q 388 -23 388 -22 q 384 -26 388 -26 q 305 4 370 -26 q 141 125 208 50 q 56 282 75 199 q 49 614 49 316 q 56 947 49 922 q 76 967 62 967 q 106 940 92 967 q 130 926 118 916 q 140 930 134 930 q 167 834 151 930 l 175 783 l 176 834 q 199 922 176 883 l 222 960 l 233 935 q 245 646 243 910 q 263 336 250 381 q 368 251 288 251 q 433 262 393 251 q 492 317 479 274 q 505 499 505 359 q 487 764 505 650 q 476 884 476 840 q 484 912 476 901 q 500 924 491 924 q 529 903 515 924 q 557 884 545 882 l 559 884 q 590 825 574 884 l 606 761 l 609 812 q 623 884 610 849 q 646 918 635 918 q 652 914 651 918 q 688 731 674 875 q 703 439 703 587 q 688 240 703 293 q 597 109 665 163 q 425 27 529 54 q 368 7 368 14 m 343 103 q 387 114 387 103 q 345 141 387 121 q 294 161 302 161 l 293 161 q 304 129 293 159 q 343 103 315 103 z "},"V":{"ha":841,"x_min":15,"x_max":842,"o":"m 701 958 q 682 864 701 947 q 663 772 663 781 q 667 768 663 768 q 715 800 680 768 q 804 873 746 830 q 838 894 833 894 q 842 891 842 894 q 841 883 842 886 q 661 354 784 684 q 533 -14 555 72 q 499 -104 518 -71 q 465 -138 480 -138 q 442 -104 450 -138 q 426 -77 435 -77 l 425 -79 l 423 -79 l 422 -79 q 416 -57 416 -79 q 418 -18 416 -34 l 425 52 l 403 3 q 368 -99 377 -60 q 353 -141 358 -141 q 343 -127 350 -141 q 203 275 298 -46 q 37 773 88 675 q 15 842 15 817 q 21 873 15 859 q 34 887 27 887 q 68 868 42 887 q 92 854 85 854 q 96 860 96 854 q 99 867 96 867 q 153 789 114 867 q 175 753 172 753 l 175 755 q 165 800 175 772 q 156 842 156 827 q 163 885 156 863 q 179 907 171 907 l 180 906 l 182 906 q 418 301 220 882 l 419 301 q 473 441 427 301 q 551 703 519 582 q 600 869 583 831 q 654 932 617 906 q 701 960 697 960 l 701 958 z "},"W":{"ha":1138,"x_min":5,"x_max":1112,"o":"m 494 780 q 489 800 494 789 q 484 821 484 811 q 491 852 484 837 q 505 868 498 868 q 515 891 513 868 q 531 912 517 903 q 559 921 545 921 q 585 907 579 921 q 597 898 587 898 l 609 898 q 621 878 621 898 q 623 859 621 860 q 632 868 624 857 q 636 873 633 869 q 655 887 647 887 l 665 887 q 686 898 674 887 q 700 907 699 907 q 705 860 705 907 q 760 631 705 799 q 817 446 815 449 l 818 445 q 874 663 829 445 q 920 933 920 880 q 943 994 920 968 q 970 1012 959 1012 q 989 975 981 1012 q 997 951 993 956 q 1010 954 1001 947 q 1019 959 1016 959 q 1028 894 1027 959 l 1029 821 l 1039 868 q 1067 926 1046 899 q 1104 954 1088 954 q 1112 922 1112 954 q 1074 642 1112 853 q 1005 252 1008 270 q 966 50 975 69 q 919 -1 954 27 q 869 -30 884 -30 l 865 -30 q 857 -11 852 -22 l 857 -9 q 859 -7 859 -8 q 846 49 859 9 q 822 92 831 92 q 804 81 821 92 q 780 47 780 65 q 758 -9 780 39 q 730 -58 736 -58 q 718 -41 724 -58 q 690 77 718 -39 q 636 305 663 193 q 606 418 609 418 q 547 269 597 418 q 491 84 491 104 q 462 35 491 68 q 407 -12 433 1 l 377 -27 q 342 98 350 68 l 302 75 q 245 11 263 52 l 227 -33 l 216 4 q 176 270 194 81 q 37 848 145 612 q 5 951 5 917 q 20 977 5 977 q 56 959 37 977 q 73 946 68 947 q 84 954 77 945 q 92 959 87 959 q 127 918 104 959 q 155 860 149 878 q 167 840 161 840 q 168 842 168 840 q 156 889 168 850 q 144 939 144 928 q 153 977 144 952 q 171 1001 163 1001 l 172 1001 q 249 840 191 989 q 336 578 307 692 q 351 520 340 560 q 365 468 362 480 l 377 425 l 418 529 q 494 780 494 720 m 621 800 q 623 789 621 792 q 629 792 625 781 q 628 807 632 799 q 623 810 625 815 q 621 800 621 807 z "},"X":{"ha":812,"x_min":-3,"x_max":791,"o":"m 224 0 q 249 90 224 8 q 274 178 274 171 q 273 179 274 179 q 227 152 266 179 q 143 98 195 130 q 85 66 91 66 l 85 69 q 146 222 85 88 q 247 429 206 357 q 286 511 286 502 q 192 654 286 526 q 56 826 98 783 q -3 930 -3 887 q 12 948 -3 948 q 42 939 23 948 q 66 930 60 929 q 73 941 72 930 q 79 947 73 947 q 140 902 91 947 l 205 842 l 171 890 q 132 978 136 940 q 134 1019 126 1019 q 208 949 146 1019 q 328 802 270 880 q 414 697 408 697 q 521 845 420 697 q 619 979 585 940 q 677 1017 654 1017 q 696 1002 696 1017 q 691 981 696 997 q 686 958 686 964 q 693 943 686 947 q 696 935 696 941 q 667 861 696 918 q 644 811 644 815 q 650 815 646 811 q 707 878 693 867 q 746 890 722 890 l 750 890 q 769 882 769 890 q 646 680 769 865 q 547 506 547 526 q 659 345 547 500 q 776 175 762 202 q 791 69 791 151 q 785 27 791 27 q 719 110 777 27 q 652 191 662 191 q 647 98 647 191 l 647 76 q 648 60 647 71 q 648 46 648 50 q 640 -23 648 -23 q 635 -20 637 -23 q 526 141 617 -3 q 425 292 431 292 q 378 184 418 292 q 315 52 340 84 q 272 14 300 33 q 231 -5 244 -5 q 224 0 224 -5 z "},"Y":{"ha":715,"x_min":-1,"x_max":712,"o":"m 130 959 q 141 996 130 996 q 210 928 160 996 q 315 758 259 860 q 369 684 354 684 q 452 817 384 699 q 530 963 521 936 q 574 1017 548 1017 q 602 989 597 1017 q 623 966 605 966 q 635 947 635 966 q 620 884 635 926 q 618 873 616 873 q 637 891 623 873 q 700 929 670 929 q 712 916 712 929 q 568 613 712 872 q 465 410 465 426 q 494 215 465 399 q 522 20 522 31 q 500 -30 522 1 q 464 -61 477 -61 q 444 -5 456 -61 l 430 50 l 403 18 q 376 -12 399 14 q 345 -50 354 -38 q 311 -80 319 -80 l 309 -80 q 294 41 302 -72 q 277 262 286 153 q 262 370 269 370 q 244 382 248 370 q 208 399 237 399 q 180 403 180 399 q 191 425 180 407 q 208 464 208 450 q 171 576 208 486 q 37 841 103 743 q -1 918 -1 901 q 30 937 -1 937 l 33 937 q 71 945 65 937 q 73 947 71 947 q 113 922 88 947 q 138 906 140 898 q 137 910 138 907 q 130 959 130 924 z "},"Z":{"ha":758,"x_min":-16,"x_max":749,"o":"m 45 -107 q 20 -95 30 -107 q 9 -68 9 -83 q 19 -46 9 -52 q 24 -23 30 -38 q 24 -22 24 -22 q 23 -20 23 -22 q 52 8 23 -7 q 83 31 83 24 q 77 34 83 34 l 61 31 l 52 31 q 9 46 28 31 l -16 65 l 33 88 q 102 110 79 110 q 132 139 114 110 q 191 251 151 168 q 370 589 247 365 q 475 792 475 776 q 338 799 475 799 q 224 794 255 799 q 161 774 193 789 q 110 758 127 758 q 88 798 88 758 l 88 808 q 96 850 90 837 q 122 879 103 864 l 155 903 l 122 895 q 107 894 117 894 q 69 907 85 894 q 54 924 54 920 q 73 944 54 929 q 208 994 103 970 q 391 1017 312 1017 q 530 1005 420 1017 l 637 994 l 650 947 q 656 905 656 920 q 652 882 656 890 q 625 821 646 869 l 610 777 l 631 804 q 658 850 652 830 q 690 875 661 860 q 734 890 719 890 q 738 884 738 890 q 604 598 738 861 q 396 152 396 193 q 448 141 396 141 q 591 130 502 141 q 697 109 680 118 q 730 67 711 102 q 749 14 749 33 q 739 11 749 11 q 682 22 727 11 q 631 34 636 34 q 617 24 617 34 q 632 -8 617 15 q 681 -118 681 -85 q 680 -123 681 -122 l 677 -123 q 624 -111 659 -123 q 327 -73 503 -73 q 298 -74 319 -73 q 269 -75 278 -75 q 84 -96 126 -79 q 45 -107 58 -107 z "},"[":{"ha":499,"x_min":46,"x_max":468,"o":"m 46 968 q 54 1002 46 985 q 73 1019 62 1019 q 100 993 80 1019 q 123 975 117 975 q 126 979 126 975 q 114 1009 126 989 q 109 1027 109 1019 q 224 1085 109 1062 q 370 1103 308 1103 q 428 1093 412 1103 q 446 1050 444 1082 l 446 1043 q 419 1023 446 1027 l 391 1019 q 429 949 404 996 q 468 879 454 902 l 361 887 q 289 890 328 890 q 254 880 254 890 q 256 857 254 876 q 262 800 258 838 q 270 731 267 761 q 292 321 283 601 l 298 50 l 354 50 q 418 39 401 50 q 441 -12 434 27 q 444 -35 444 -31 q 431 -45 444 -45 q 413 -43 427 -45 q 396 -41 399 -41 q 381 -56 381 -41 q 395 -120 381 -61 q 408 -187 408 -179 l 408 -189 q 338 -171 395 -189 q 218 -152 274 -152 q 206 -153 214 -152 q 195 -153 198 -153 l 123 -156 l 109 -115 q 98 -80 98 -90 q 113 -54 98 -72 q 126 -37 127 -38 q 111 -42 125 -37 q 83 -60 90 -50 q 75 -65 79 -65 q 64 11 64 -65 q 71 176 64 90 q 80 479 80 296 q 64 830 80 735 q 46 968 46 940 m 212 69 q 198 102 212 102 q 172 79 189 102 q 152 43 149 46 q 182 47 153 42 q 212 69 212 52 z "},"\\":{"ha":544,"x_min":-12,"x_max":559,"o":"m 83 939 l 85 939 q 106 962 98 939 q 127 990 114 990 q 163 960 145 990 q 182 907 182 929 q 397 388 182 815 q 559 46 559 71 q 555 34 559 34 q 518 50 547 34 q 492 66 509 56 q 455 90 476 76 q 425 110 434 103 q 369 141 377 141 l 369 140 q 400 49 369 132 q 427 -43 427 -23 q 423 -46 427 -46 q 382 -29 411 -46 q 336 5 353 -12 q 254 171 312 33 q 129 461 134 449 q -12 887 -12 774 l -12 945 l 18 917 q 64 836 45 890 l 81 785 l 76 864 q 75 910 75 883 q 83 939 75 939 z "},"]":{"ha":506,"x_min":37,"x_max":457,"o":"m 133 -171 q 106 -136 122 -171 q 90 -88 90 -102 q 107 -60 90 -77 q 119 -45 119 -47 q 102 -49 118 -43 q 77 -53 92 -53 q 37 -31 37 -53 q 136 38 37 8 l 198 57 l 224 193 q 252 610 247 328 l 259 891 l 220 905 q 157 911 199 911 q 62 903 115 911 q 58 903 61 903 q 54 902 56 902 q 43 921 43 902 q 51 985 43 966 q 77 1016 58 1005 q 96 1027 95 1025 q 80 1029 96 1029 q 58 1040 66 1029 q 49 1062 49 1050 q 62 1090 49 1081 q 160 1103 79 1103 q 185 1102 167 1103 q 214 1101 203 1101 l 345 1099 l 358 1059 q 365 1028 365 1036 q 361 1019 365 1020 q 357 998 357 1017 q 361 958 357 985 l 370 899 l 372 952 q 388 1031 373 990 q 416 1073 403 1073 q 446 907 434 1073 q 457 532 457 742 q 442 156 457 282 q 423 3 441 141 q 396 -41 420 -19 q 374 -73 374 -60 q 382 -120 374 -81 q 389 -165 389 -159 l 389 -170 q 351 -161 382 -172 q 233 -151 316 -151 q 148 -161 155 -151 q 133 -171 142 -171 m 338 100 q 316 87 332 100 q 300 68 300 73 q 321 61 300 61 q 342 81 342 61 q 338 100 342 100 z "},"^":{"ha":754,"x_min":46,"x_max":743,"o":"m 697 601 q 689 602 694 601 q 680 597 680 605 q 663 589 680 589 q 609 602 642 589 q 593 606 593 609 q 605 590 593 604 q 625 544 625 567 q 606 522 625 522 q 410 674 559 522 l 324 760 l 277 694 q 214 591 224 618 q 178 555 201 555 q 139 584 157 555 q 121 644 121 613 q 122 659 121 655 l 129 689 l 111 663 q 72 642 95 642 q 47 658 54 642 l 46 659 q 46 663 46 662 q 121 826 46 699 q 255 1016 197 954 q 304 1046 283 1046 q 320 1044 315 1046 q 370 1024 370 1034 q 351 994 370 1016 q 330 954 330 970 q 362 943 330 943 q 388 951 388 943 q 412 994 388 960 l 439 1028 l 483 937 q 587 785 518 865 q 705 673 655 704 q 743 635 743 650 q 727 612 743 624 q 697 601 711 601 z "},"_":{"ha":732,"x_min":35,"x_max":688,"o":"m 283 -75 q 479 -69 304 -72 l 544 -69 q 640 -79 620 -69 q 682 -129 659 -88 q 688 -144 688 -138 q 636 -153 688 -153 q 578 -159 578 -153 l 628 -233 l 678 -302 l 625 -296 q 334 -274 468 -274 q 222 -279 264 -274 q 94 -293 117 -293 q 47 -277 57 -293 q 57 -241 35 -258 q 77 -213 77 -227 q 125 -182 77 -199 l 172 -164 l 134 -164 q 91 -142 96 -164 q 99 -111 85 -122 q 283 -75 122 -91 z "},"`":{"ha":431,"x_min":-23,"x_max":418,"o":"m 20 1006 q 46 975 24 1006 q 73 944 68 944 q 95 978 83 944 q 129 1047 104 1004 l 151 1084 l 217 972 q 350 792 290 852 q 418 708 418 724 q 403 694 418 701 q 369 681 388 686 q 347 673 350 675 q 307 678 334 665 q 282 688 288 688 q 278 684 278 688 q 290 665 278 677 q 296 646 296 659 q 288 621 296 632 q 271 609 281 609 q 199 659 258 609 q 62 810 146 708 q -23 928 -23 913 q -5 975 -23 943 q 20 1006 12 1006 z "},"a":{"ha":894,"x_min":34,"x_max":853,"o":"m 789 -23 q 773 33 785 -20 q 753 85 761 85 q 690 15 741 83 q 644 -35 652 -35 q 621 76 632 -35 l 613 156 l 548 79 q 480 -12 480 -3 q 494 -18 480 -18 q 510 -26 510 -18 q 479 -50 510 -38 q 448 -72 448 -62 q 434 -83 448 -77 q 407 -88 420 -88 q 389 -83 395 -88 q 343 -72 378 -72 q 148 38 255 -72 q 34 273 34 153 q 52 399 34 330 q 111 570 72 484 q 205 725 146 647 q 293 810 264 803 q 312 812 307 812 q 335 793 335 812 q 330 768 335 780 q 324 745 323 750 q 338 743 326 741 q 352 758 349 745 q 358 812 355 772 q 377 879 362 879 q 502 751 392 879 q 618 624 612 624 q 621 652 627 624 q 621 658 621 654 q 620 663 620 662 q 628 692 620 681 q 647 703 636 703 q 670 693 659 703 q 704 678 690 675 l 705 680 q 728 642 719 680 q 751 602 739 602 q 755 613 755 602 q 755 623 755 616 q 754 633 754 629 q 769 672 754 651 q 795 693 784 693 q 804 686 800 693 q 811 665 807 678 q 815 650 815 651 q 836 376 819 637 q 853 54 853 115 q 828 7 853 39 q 792 -24 803 -24 l 791 -24 l 789 -23 m 297 640 q 275 627 297 655 q 265 613 264 614 q 278 621 266 612 q 297 640 297 635 m 408 543 q 349 590 351 590 q 306 519 339 590 q 262 404 273 448 q 240 296 240 315 q 251 254 240 271 q 289 212 262 237 q 349 163 340 163 q 458 288 358 163 l 557 414 l 510 454 q 463 496 499 464 q 408 543 426 529 m 374 35 q 378 56 380 56 q 362 41 374 56 q 350 22 350 27 q 362 15 350 7 q 374 35 370 22 z "},"b":{"ha":821,"x_min":43,"x_max":787,"o":"m 79 945 q 87 987 79 968 q 110 1006 96 1006 q 133 987 117 1006 q 159 967 149 967 q 163 968 160 967 l 164 968 l 165 970 q 201 879 187 970 q 205 867 203 867 q 209 891 206 867 q 226 958 210 920 q 252 997 241 997 q 272 949 264 997 q 288 766 279 901 q 301 571 297 575 l 353 605 q 474 674 406 640 q 582 708 543 708 q 677 652 625 708 q 754 521 728 595 q 787 309 787 420 q 766 174 787 232 q 663 32 732 87 q 468 -61 593 -23 q 370 -79 407 -79 q 285 -54 323 -79 q 264 -45 269 -45 q 232 -65 252 -45 q 194 -94 201 -94 q 189 -37 189 -94 q 189 -18 189 -31 q 190 3 190 -4 l 190 43 q 186 99 190 99 q 146 56 178 99 q 84 -23 117 14 q 45 -60 52 -60 l 43 -60 l 43 -54 q 61 186 43 -31 q 91 784 91 525 q 83 906 91 871 q 79 945 79 925 m 647 586 q 593 623 625 623 q 563 613 563 623 q 585 601 563 601 q 637 568 608 601 q 667 543 661 543 q 669 544 669 543 q 647 586 669 551 m 587 331 q 580 412 587 362 q 564 467 572 461 l 562 467 l 559 468 q 433 409 532 468 q 302 315 335 350 q 286 225 286 297 l 286 157 l 290 18 l 357 15 l 378 15 q 423 20 423 15 q 381 54 423 30 q 338 99 338 79 q 332 133 338 117 l 331 134 q 331 137 331 136 q 388 156 331 151 q 496 185 435 161 q 568 228 557 209 q 587 331 587 258 z "},"c":{"ha":754,"x_min":24,"x_max":758,"o":"m 675 274 q 703 201 703 274 q 686 157 703 176 q 673 137 673 144 q 675 136 673 136 q 692 138 678 136 l 699 138 q 738 119 722 138 l 758 98 l 715 60 q 406 -94 536 -94 q 305 -73 361 -94 q 217 -22 250 -52 q 146 82 174 18 q 83 286 118 146 q 35 450 43 448 q 24 484 24 454 q 33 540 24 513 q 50 567 41 567 l 52 567 q 111 616 65 567 q 178 674 148 654 q 267 720 209 694 q 373 741 316 741 l 378 741 q 446 732 416 741 q 538 692 475 723 q 652 644 642 644 q 668 631 661 644 q 675 604 675 617 q 644 581 675 581 q 624 564 624 581 q 606 548 624 548 q 572 557 601 548 q 536 567 544 567 q 530 564 530 567 q 553 547 530 557 q 583 505 579 534 q 584 498 583 502 q 585 494 585 495 q 567 473 585 473 q 464 510 548 473 q 382 538 399 538 q 346 526 369 538 q 264 446 293 500 q 256 419 256 433 q 311 209 256 372 q 326 174 320 182 q 343 165 331 165 q 366 168 347 165 q 442 180 391 174 q 545 214 475 186 q 646 262 616 243 q 675 274 665 274 m 174 444 q 169 467 174 449 q 164 490 164 484 q 155 506 164 506 q 144 494 144 506 q 161 456 144 477 q 171 445 165 452 l 174 442 l 174 444 z "},"d":{"ha":873,"x_min":24,"x_max":842,"o":"m 437 -15 q 448 -26 437 -19 q 460 -38 460 -33 q 431 -52 460 -52 q 391 -64 410 -52 q 366 -71 380 -71 q 345 -65 355 -71 q 285 -42 316 -52 q 160 39 225 -23 q 53 180 95 102 q 24 296 24 237 q 52 416 24 355 q 170 604 95 510 q 309 738 245 697 q 357 789 357 766 q 345 812 357 800 q 357 826 331 826 q 441 792 387 826 q 536 715 496 758 q 587 665 583 665 q 591 738 591 665 q 591 771 591 747 q 590 808 590 795 l 590 878 q 602 970 590 956 q 618 982 613 982 q 644 961 623 982 q 673 940 665 940 q 677 941 675 940 q 697 893 686 941 q 711 845 708 845 q 718 868 715 845 q 736 924 720 895 q 765 952 753 952 q 770 949 768 952 q 787 673 780 940 q 797 425 791 496 q 821 263 803 353 q 842 125 842 159 q 803 31 842 83 q 798 24 800 28 q 793 18 795 20 q 791 16 792 16 q 757 133 779 16 q 742 174 749 174 q 688 90 731 174 q 635 15 648 15 q 625 56 625 15 q 604 102 625 102 q 525 66 576 102 q 454 9 473 30 q 437 -15 437 -8 m 388 548 q 303 450 372 548 q 235 312 235 351 q 267 251 235 288 q 297 217 288 227 q 318 199 307 208 q 339 191 330 191 q 419 240 361 191 q 536 331 481 292 l 581 362 l 487 456 q 388 548 395 548 m 342 56 q 338 66 349 66 q 320 56 327 66 q 324 46 315 46 q 342 56 336 46 z "},"e":{"ha":762,"x_min":43,"x_max":739,"o":"m 76 633 q 72 650 76 642 q 68 665 68 658 q 77 693 68 678 q 95 708 85 708 q 99 726 104 708 q 98 730 99 727 q 128 749 98 741 q 159 765 159 757 q 138 772 159 772 q 112 785 123 772 q 100 812 100 799 q 109 827 100 823 q 195 836 122 836 q 401 821 308 836 q 667 694 586 789 q 712 606 712 643 q 704 571 712 589 q 686 534 686 536 q 709 513 686 524 l 739 499 l 690 458 q 631 378 643 420 q 594 331 620 338 q 474 290 567 324 q 338 236 381 255 q 296 208 296 217 q 298 199 296 202 q 361 170 309 186 q 444 153 414 153 l 445 153 q 525 177 476 153 q 605 231 574 201 q 646 256 631 256 q 668 243 659 256 q 677 216 677 231 q 686 183 677 190 q 689 176 689 180 q 673 141 689 163 l 647 107 l 671 119 q 700 126 685 126 q 736 104 736 126 q 651 24 736 77 q 488 -53 566 -30 q 354 -64 452 -64 l 336 -64 q 245 -58 267 -62 q 213 -39 224 -54 q 155 27 202 -23 q 43 372 43 146 q 66 585 43 505 q 76 633 76 614 m 373 617 q 252 639 326 631 q 231 641 244 639 q 213 643 218 643 q 191 631 191 643 q 186 579 191 620 l 180 543 l 195 585 q 224 631 212 631 q 251 614 231 631 q 271 591 271 597 q 254 509 271 590 q 236 415 236 427 q 239 414 236 414 q 351 468 245 414 q 468 521 448 521 l 469 521 q 475 522 472 519 q 482 530 479 525 q 486 541 486 536 q 454 582 486 560 q 373 617 422 604 m 647 545 q 627 594 647 556 q 601 632 606 632 q 597 618 597 632 q 612 598 597 604 q 610 576 624 594 q 603 564 604 568 q 606 557 602 560 q 620 548 610 553 q 642 540 635 540 q 647 545 647 540 m 522 408 q 533 419 533 408 q 522 430 533 430 q 513 419 513 430 q 522 408 513 408 z "},"f":{"ha":505,"x_min":26,"x_max":533,"o":"m 283 430 q 299 279 283 420 q 315 104 315 137 q 304 39 315 61 q 267 -11 294 16 l 235 -42 l 235 5 q 228 103 235 58 l 221 153 l 176 92 q 103 8 114 8 q 89 42 92 8 q 81 182 85 76 q 47 636 73 378 q 26 879 26 853 q 35 945 26 924 q 69 987 45 966 l 96 1010 l 96 987 q 102 966 96 966 l 254 1015 q 449 1072 412 1066 q 496 1078 486 1078 q 528 1057 515 1078 q 533 1043 533 1046 q 515 1020 533 1034 q 491 989 491 998 q 457 964 491 977 q 430 951 430 954 q 446 947 430 949 q 469 917 469 943 q 448 886 469 902 q 351 831 426 869 l 232 770 l 237 718 q 247 659 243 663 q 254 658 250 658 q 338 671 266 658 q 419 685 411 685 q 436 680 429 685 q 446 671 444 675 q 458 652 449 667 q 479 612 479 618 q 454 601 479 601 q 427 585 427 601 q 442 553 427 572 q 473 494 458 533 l 488 454 q 385 456 453 456 q 282 457 317 456 l 283 430 m 144 841 q 146 860 151 848 q 140 863 144 869 q 138 854 138 860 q 144 841 140 841 z "},"g":{"ha":836,"x_min":35,"x_max":789,"o":"m 605 -305 l 590 -305 q 335 -323 537 -305 q 157 -335 195 -335 q 119 -327 123 -335 q 111 -302 111 -315 q 125 -275 111 -288 q 141 -248 141 -262 q 187 -224 141 -235 l 216 -214 q 208 -213 216 -214 q 162 -193 184 -212 q 140 -159 140 -174 q 156 -146 140 -146 q 294 -129 180 -146 q 461 -99 407 -111 q 548 -60 537 -81 q 568 26 557 -43 q 579 132 579 96 q 576 149 579 146 l 575 149 q 515 111 564 149 q 412 22 465 72 q 338 -27 361 -27 q 317 3 317 -27 q 308 38 317 31 q 304 46 304 41 q 309 69 304 53 q 315 90 315 85 q 300 95 315 95 l 290 95 q 263 83 263 95 q 264 72 263 76 q 293 -45 293 -24 q 290 -52 293 -52 q 206 7 275 -52 q 109 102 137 65 q 35 335 35 193 q 61 505 35 419 q 208 750 95 618 q 285 804 255 804 q 312 792 312 804 q 309 774 312 789 q 307 751 307 758 q 312 741 307 741 q 324 757 324 741 q 331 770 324 770 q 426 707 343 770 q 545 628 529 628 q 564 640 556 628 q 579 654 574 654 q 602 637 583 654 q 640 620 628 614 l 642 620 q 670 572 655 620 q 685 533 682 533 q 686 559 686 533 q 707 625 686 597 l 727 654 l 739 627 q 776 434 762 579 q 789 136 789 289 q 768 -125 789 -46 q 746 -220 749 -194 q 696 -277 743 -245 q 605 -305 652 -305 m 317 708 q 294 682 311 708 q 277 648 277 655 q 279 644 277 644 q 306 666 289 644 q 323 699 323 688 q 317 708 323 708 m 241 357 q 267 262 241 308 q 320 217 293 217 q 431 309 336 217 l 526 403 l 411 464 q 288 526 301 526 q 258 467 274 526 q 241 357 241 407 m 628 -168 q 646 -179 628 -179 q 665 -164 656 -179 q 674 -134 674 -149 q 671 -130 674 -130 q 647 -145 666 -130 q 628 -168 628 -160 z "},"h":{"ha":825,"x_min":50,"x_max":789,"o":"m 50 941 q 60 977 50 959 q 81 996 69 996 q 110 971 98 996 q 134 954 122 944 q 138 956 136 954 q 141 959 140 959 q 155 935 146 959 q 170 887 164 911 q 178 863 176 863 q 180 887 180 863 q 199 949 182 913 q 227 986 216 986 q 270 726 251 986 q 285 548 282 553 l 286 548 q 339 578 294 548 q 496 659 396 614 q 601 701 586 701 q 629 690 612 701 q 678 628 678 661 q 677 619 678 625 q 677 608 677 613 q 677 600 677 604 q 678 593 677 595 q 684 590 680 590 q 696 617 696 590 q 720 658 696 643 q 738 668 732 666 q 747 668 743 670 q 753 658 750 666 q 760 444 760 642 q 770 190 760 250 q 789 71 789 91 q 769 18 789 52 l 745 -23 l 727 19 q 707 81 707 62 q 703 95 707 90 q 693 98 699 100 q 654 45 684 95 q 614 -33 624 -4 q 601 -49 608 -49 q 571 27 590 -49 q 553 232 553 98 l 553 278 l 555 450 l 499 429 q 393 374 445 408 q 315 311 340 340 q 293 268 297 289 q 289 172 289 247 q 279 51 289 85 q 232 -18 269 16 l 203 -43 l 203 159 l 174 123 q 107 42 145 91 q 61 -7 69 -7 q 58 33 58 -7 q 61 122 58 87 q 69 502 69 250 q 57 899 69 852 q 50 941 50 926 z "},"i":{"ha":342,"x_min":37,"x_max":309,"o":"m 151 636 l 155 636 q 182 601 170 636 q 193 578 190 578 q 195 586 195 578 q 222 633 195 609 l 248 658 l 259 627 q 276 476 269 600 q 283 229 283 353 q 271 33 283 43 q 264 27 270 31 q 249 16 259 23 q 231 4 239 9 l 195 -19 l 195 76 q 189 102 195 102 q 104 43 180 102 q 49 7 56 7 l 49 12 q 62 165 49 47 q 77 446 77 293 l 77 477 q 76 625 76 537 l 76 652 q 92 665 79 665 q 122 650 110 665 q 151 636 136 636 m 132 1009 q 142 1040 132 1040 q 192 1017 157 1040 q 231 982 227 994 q 251 972 233 972 q 264 973 255 972 q 277 974 273 974 q 309 932 309 974 q 277 799 309 879 q 261 769 269 776 q 237 762 254 762 q 230 763 235 762 q 221 764 225 764 q 190 770 198 766 q 182 784 182 774 q 182 791 182 787 q 183 796 183 795 q 165 817 183 810 q 88 831 148 823 l 37 838 l 60 871 q 132 1009 132 966 z "},"j":{"ha":351,"x_min":-37,"x_max":304,"o":"m 62 642 q 71 679 62 661 q 92 697 80 697 q 118 675 106 697 q 144 658 130 654 q 155 661 152 661 q 186 589 167 661 l 201 532 l 203 587 q 214 662 203 627 q 235 697 224 697 q 262 623 245 697 q 289 457 279 548 q 304 153 304 317 l 304 126 q 279 -125 304 -31 q 227 -254 256 -208 q 149 -327 197 -301 q 84 -346 111 -346 q 5 -316 58 -346 l -37 -293 l 37 -275 q 121 -240 83 -264 q 160 -199 160 -216 q 146 -195 160 -195 q 123 -197 140 -195 q 100 -198 106 -198 q 24 -172 69 -198 l -26 -142 l 8 -132 q 81 -3 60 -117 q 102 250 102 111 q 71 590 102 469 q 62 642 62 625 m 73 968 q 72 970 73 968 q 72 975 72 972 q 71 984 72 978 q 71 993 71 990 q 79 1019 71 1019 q 131 1004 91 1019 q 178 983 171 990 q 190 981 180 981 q 209 982 195 981 q 227 983 222 983 q 262 961 252 983 q 273 888 273 939 q 259 814 273 827 q 231 806 251 806 q 194 812 212 806 q 176 827 176 819 q 177 831 176 829 q 178 836 178 834 q 107 848 178 848 q 33 853 33 848 q 54 894 33 857 q 73 962 73 928 q 73 968 73 964 z "},"k":{"ha":773,"x_min":31,"x_max":788,"o":"m 31 944 q 52 985 31 985 q 88 963 64 985 q 111 956 111 941 q 115 966 111 966 q 156 883 130 966 l 175 821 l 170 873 q 168 898 168 882 q 177 958 168 932 q 198 983 186 983 l 201 983 q 252 816 221 977 q 282 553 282 655 q 292 506 282 506 q 372 585 307 506 q 460 708 437 663 q 488 758 476 745 q 515 772 500 772 q 538 757 538 772 q 554 729 538 749 q 570 700 570 709 q 563 670 570 693 l 552 632 l 576 655 q 617 674 598 674 q 642 651 642 674 q 640 640 642 644 q 503 416 620 572 l 439 331 l 496 279 q 713 152 605 180 q 768 133 753 141 q 784 111 783 125 q 765 81 788 87 q 749 73 755 80 q 742 60 742 66 q 697 45 742 45 q 661 42 661 45 q 678 33 661 41 q 711 9 703 22 q 720 -23 720 -3 q 704 -41 720 -41 q 690 -39 700 -41 q 673 -37 680 -37 q 539 11 623 -30 q 378 104 456 52 l 293 163 l 293 115 q 236 -27 293 26 l 210 -53 l 201 42 l 194 134 l 167 103 q 134 61 159 94 q 102 19 110 28 l 64 -30 l 60 20 l 60 45 q 68 222 60 122 q 79 500 79 358 q 42 872 79 722 q 31 944 31 911 z "},"l":{"ha":340,"x_min":37,"x_max":294,"o":"m 37 940 q 45 977 37 959 q 64 996 53 996 q 89 978 68 996 q 119 960 110 960 l 121 960 q 123 962 122 962 l 125 962 q 153 905 140 962 l 170 842 l 171 890 q 191 966 171 939 l 213 991 l 224 963 q 289 283 256 873 q 294 140 294 201 q 284 50 294 76 q 244 -5 274 23 l 218 -31 q 210 66 216 1 q 201 164 203 132 l 171 125 q 138 79 138 84 q 102 31 138 73 l 64 -12 l 65 351 l 65 468 q 61 728 65 656 q 42 887 57 799 q 37 940 37 916 z "},"m":{"ha":1097,"x_min":42,"x_max":1058,"o":"m 836 64 q 823 73 823 64 q 842 175 823 95 q 861 298 861 255 q 842 416 861 340 q 828 451 836 445 q 793 457 821 457 q 713 446 754 457 q 682 431 689 439 q 669 396 674 422 q 663 335 663 374 q 670 188 663 271 q 684 79 677 104 q 686 54 686 71 q 678 23 686 35 q 658 11 670 11 q 631 26 644 11 q 601 41 616 43 l 598 41 q 572 79 585 41 q 560 111 562 111 q 557 91 559 111 q 530 41 555 57 q 509 27 513 27 q 495 56 503 27 q 473 196 486 87 q 461 361 461 305 q 448 414 461 414 q 398 369 433 414 q 339 273 363 324 q 301 213 313 213 q 294 153 294 213 l 294 132 q 295 110 294 122 q 296 92 296 98 q 289 51 296 62 q 259 22 282 39 q 221 -5 225 -5 q 210 60 218 -5 l 201 122 l 155 79 q 85 26 98 26 q 71 117 71 26 q 71 175 71 130 q 72 251 72 220 l 72 309 q 43 628 72 551 l 43 629 q 42 633 42 632 q 51 663 42 647 q 68 680 60 680 q 88 667 73 680 q 123 652 109 647 q 126 653 125 652 q 129 654 127 654 q 157 620 144 654 q 172 589 170 589 q 174 605 174 589 q 195 652 174 633 q 217 665 210 665 q 250 586 233 665 l 263 529 l 312 578 q 418 652 351 613 q 511 690 486 690 q 557 664 525 690 q 589 627 589 637 q 557 613 589 620 q 525 585 525 608 q 534 563 525 563 q 589 610 543 563 q 640 670 636 658 q 656 675 647 688 q 662 658 662 669 q 674 639 662 639 q 749 658 681 639 q 854 680 827 680 q 918 731 918 680 q 926 751 918 751 q 985 669 944 751 q 1058 339 1058 524 q 1031 122 1058 222 q 968 -5 998 -5 q 948 6 958 -5 q 939 27 939 18 q 922 43 939 43 q 907 65 907 43 q 910 98 907 71 l 916 153 l 895 115 q 867 79 884 94 q 836 64 849 64 z "},"n":{"ha":783,"x_min":30,"x_max":760,"o":"m 760 38 q 730 -9 760 -9 q 700 9 712 -9 q 678 24 692 24 l 675 24 q 674 24 675 24 l 673 23 q 646 71 661 23 l 631 122 l 629 83 q 604 26 627 42 q 583 15 586 15 q 559 122 570 15 q 468 392 543 279 l 426 457 l 393 439 q 324 374 362 420 l 286 331 l 302 182 q 313 54 313 88 q 304 -3 313 16 q 270 -39 296 -22 l 237 -62 l 231 -23 q 225 47 225 18 q 220 66 225 66 q 157 11 214 66 l 91 -56 l 83 197 q 37 586 75 548 q 30 601 30 593 q 40 625 30 613 q 62 637 50 637 q 95 625 83 637 q 104 620 100 620 q 114 627 111 620 q 118 631 117 631 q 146 598 127 631 l 171 557 l 170 589 l 170 595 q 180 641 170 618 q 199 663 190 663 q 229 620 210 663 l 247 582 l 271 602 q 372 673 308 635 q 476 720 448 720 q 494 712 484 720 q 510 704 503 704 q 518 705 515 704 l 521 705 q 644 515 545 705 q 715 350 696 418 q 750 153 735 282 q 760 38 760 76 m 488 637 q 479 633 484 637 q 473 623 473 628 q 490 605 473 605 q 500 621 500 605 q 488 637 500 637 z "},"o":{"ha":766,"x_min":37,"x_max":735,"o":"m 274 780 q 358 796 294 796 q 545 729 453 796 q 690 555 637 662 q 714 489 709 515 q 719 399 719 463 q 711 271 719 307 q 707 250 707 255 q 708 247 707 247 q 720 260 709 247 q 732 273 730 273 q 735 267 735 273 q 724 222 735 258 q 618 47 701 156 q 484 -92 536 -61 q 404 -118 437 -118 q 314 -81 361 -118 q 198 43 267 -43 q 98 160 106 160 q 71 127 91 160 q 50 106 58 106 q 37 170 37 106 q 57 355 37 260 q 129 582 91 509 q 241 705 167 655 q 293 755 293 739 q 271 765 293 765 q 260 766 260 765 q 274 780 260 769 m 377 726 q 380 731 385 728 q 370 732 377 732 q 357 727 357 731 q 377 726 363 720 m 323 617 q 300 610 323 637 q 293 598 290 600 q 304 601 294 597 q 323 617 323 609 m 396 119 q 432 169 403 119 q 461 229 461 218 q 460 232 461 232 q 458 236 458 232 q 471 279 458 252 q 503 374 490 319 q 509 415 509 401 q 439 562 509 491 q 373 604 400 604 l 372 604 q 359 600 358 604 q 362 597 359 598 q 374 585 374 593 q 338 538 374 572 q 304 495 313 515 q 285 430 294 475 q 269 317 269 355 q 281 258 269 283 q 328 193 294 232 q 396 119 392 119 m 556 171 q 597 212 575 171 q 618 283 618 252 q 613 293 618 293 q 573 242 600 293 q 547 176 547 191 q 556 171 547 171 z "},"p":{"ha":864,"x_min":42,"x_max":836,"o":"m 509 734 q 581 753 551 753 q 643 727 617 753 q 673 686 673 697 q 661 680 673 680 q 659 678 659 680 q 689 629 659 669 q 792 427 750 549 q 836 206 834 305 l 836 193 q 830 122 836 144 q 806 68 825 100 q 716 -12 776 19 q 649 -38 675 -33 q 552 -43 623 -43 q 369 -26 460 -43 q 332 -18 351 -22 q 304 -14 313 -15 l 294 -11 q 289 -104 292 -11 q 281 -189 288 -168 q 252 -236 275 -209 q 214 -275 218 -275 q 199 -189 206 -275 l 193 -102 l 164 -134 q 146 -157 157 -142 q 120 -189 134 -171 q 99 -217 106 -208 l 62 -266 l 58 -216 q 58 -205 58 -213 q 57 -191 57 -197 q 65 5 57 -106 q 76 301 76 175 q 46 616 76 560 q 42 629 42 621 q 55 657 42 644 q 83 670 68 670 q 106 656 96 670 q 114 652 111 651 q 123 657 117 652 q 133 662 129 662 q 178 563 145 662 q 182 570 180 555 q 182 598 182 576 q 193 674 182 648 q 209 699 203 699 q 222 685 212 699 q 250 602 237 666 l 263 541 l 309 587 q 509 734 416 693 m 640 648 q 620 680 640 680 q 575 665 613 680 l 544 652 l 582 628 q 647 551 621 602 q 680 505 671 505 q 681 506 681 505 q 661 553 681 515 q 639 633 639 594 q 640 640 639 635 q 640 648 640 646 m 576 170 q 625 176 610 170 q 639 205 639 183 q 612 349 639 258 q 557 477 586 441 l 538 500 l 491 469 q 368 358 435 433 q 300 258 300 283 q 399 199 300 229 q 576 170 498 170 m 321 75 q 328 80 328 75 q 311 113 328 87 l 290 142 l 290 115 q 301 88 290 102 q 321 75 312 75 z "},"q":{"ha":817,"x_min":43,"x_max":764,"o":"m 704 -350 q 688 -262 697 -350 q 665 -174 678 -174 q 647 -197 661 -174 q 590 -286 631 -221 l 552 -345 l 543 -271 q 537 -141 537 -217 q 538 -76 537 -95 l 543 43 l 496 0 q 395 -68 453 -41 q 297 -95 338 -95 q 167 -49 228 -95 q 69 75 106 -3 q 43 210 43 133 l 43 239 q 152 600 46 472 q 241 688 174 628 q 342 743 305 743 q 377 728 377 743 q 426 690 377 712 q 510 636 475 669 l 541 605 l 556 642 q 586 678 570 678 q 612 652 600 678 q 637 637 624 627 l 643 640 q 661 591 651 640 q 681 513 675 513 q 684 552 684 513 q 700 624 685 589 q 727 659 715 659 q 751 547 746 659 q 760 132 757 435 l 764 -273 l 738 -311 q 704 -350 712 -350 m 358 620 q 353 627 358 627 q 296 581 340 627 q 264 544 264 547 q 331 591 323 587 q 358 620 358 608 m 240 236 q 257 168 240 210 q 290 125 274 125 q 382 208 309 125 q 526 308 472 308 q 536 312 536 308 q 481 378 536 323 q 370 468 415 446 q 315 488 327 488 q 265 397 290 488 q 240 236 240 307 m 557 224 q 555 277 557 277 q 496 207 552 277 q 441 133 441 137 q 445 132 441 132 q 487 141 456 132 q 533 159 518 151 q 553 178 548 165 q 557 224 557 191 z "},"r":{"ha":716,"x_min":45,"x_max":711,"o":"m 433 707 q 454 701 439 707 q 473 694 468 694 q 505 713 486 694 q 537 735 526 735 q 548 718 548 735 q 597 606 548 693 q 677 488 646 519 q 711 441 711 454 q 699 422 711 430 q 677 414 688 414 q 653 406 666 414 q 632 397 640 397 q 614 403 624 397 q 585 414 597 414 q 581 411 581 414 q 587 403 581 410 q 594 387 594 396 q 584 361 594 373 q 560 350 574 350 q 486 410 538 350 l 433 469 l 403 449 q 328 377 378 433 l 283 327 l 293 190 q 300 88 300 115 q 290 27 300 46 q 251 -11 279 8 q 224 -24 233 -24 q 206 47 210 -24 l 203 102 l 156 58 q 80 -1 90 -1 q 69 37 69 -1 q 72 130 69 57 q 75 233 75 202 q 50 578 75 507 q 45 602 45 590 q 91 632 45 632 l 100 632 q 137 623 126 631 q 159 593 148 616 l 176 557 l 176 597 q 184 652 176 631 q 205 673 193 673 q 222 663 213 673 q 231 647 231 652 q 240 610 231 636 l 251 582 l 302 631 q 433 707 384 707 z "},"s":{"ha":627,"x_min":-22,"x_max":601,"o":"m 528 209 q 535 186 528 201 q 551 172 543 172 q 567 181 556 172 q 582 190 578 190 q 587 179 587 190 q 570 110 587 167 q 418 -72 528 -19 q 308 -101 384 -88 q 176 -114 232 -114 q 52 -91 117 -114 q -19 -52 -14 -68 q -22 -37 -22 -41 q 12 -11 -22 -11 q 39 3 39 -11 q 62 14 39 14 l 79 14 q 109 14 109 11 q 100 20 109 15 q 81 58 81 34 q 92 79 81 76 q 155 83 103 83 q 261 93 212 83 q 311 114 311 103 l 309 115 l 309 117 q 216 170 300 130 q 108 245 138 206 q 77 355 77 285 q 98 511 77 406 q 214 762 137 715 q 252 773 232 773 q 279 758 273 773 q 330 724 283 745 q 458 648 376 703 q 574 587 544 593 q 601 562 601 582 q 575 529 601 541 q 548 509 548 517 q 515 499 548 499 q 490 492 490 499 q 494 486 490 490 q 507 449 507 472 q 484 425 507 425 q 380 463 463 425 q 305 490 321 490 q 288 475 292 490 q 283 425 283 461 l 283 377 l 361 342 q 472 272 416 316 q 528 209 528 228 m 252 613 q 259 637 264 625 q 245 637 254 651 q 241 617 241 629 q 252 613 241 602 m 445 122 q 464 127 454 122 q 473 136 473 132 q 460 163 473 145 q 450 174 453 171 q 444 174 446 176 q 439 164 442 172 q 431 136 431 142 q 445 122 431 122 z "},"t":{"ha":515,"x_min":3,"x_max":526,"o":"m 54 932 q 62 962 54 947 q 80 977 71 977 q 104 962 87 977 q 132 948 122 948 q 134 949 133 948 q 137 949 136 949 q 138 950 138 949 q 140 951 138 951 q 175 894 156 951 l 195 833 l 190 882 q 189 909 189 891 q 208 956 189 933 l 228 982 l 244 943 q 267 860 260 903 l 275 815 l 327 821 q 366 823 354 823 q 395 821 387 823 q 424 789 406 817 q 442 750 442 761 q 402 741 442 749 q 362 726 362 732 q 365 718 362 723 q 410 648 384 693 l 444 591 q 374 595 420 593 q 304 600 327 598 l 309 467 q 343 252 315 340 q 378 170 370 170 q 401 190 384 170 q 426 210 418 210 q 464 160 449 210 q 471 123 471 140 q 461 100 471 111 q 454 85 449 85 q 469 90 457 85 q 488 92 476 92 q 515 85 503 92 q 526 66 526 77 q 469 3 526 37 q 362 -30 412 -30 q 292 -15 351 -30 q 194 3 221 3 q 165 15 165 3 q 144 47 165 26 q 123 95 123 65 q 140 152 123 122 l 157 186 q 123 155 146 176 q 88 122 99 133 l 96 349 l 103 576 l 77 570 q 41 560 46 560 q 20 609 22 560 l 20 620 q 26 655 20 646 q 47 674 31 665 q 67 687 68 685 q 53 689 66 689 q 21 703 39 689 q 3 730 3 716 q 52 762 3 745 q 80 803 80 773 q 64 879 80 826 q 54 932 54 911 z "},"u":{"ha":716,"x_min":61,"x_max":670,"o":"m 65 661 q 83 680 75 680 q 111 658 92 680 q 138 643 132 637 q 144 644 140 644 q 168 582 157 644 q 178 545 174 545 q 184 568 180 545 q 204 625 191 601 q 227 650 217 650 l 228 650 q 247 604 241 647 q 258 429 252 560 q 271 184 262 321 l 277 109 l 332 103 q 365 100 359 100 q 415 129 391 100 q 458 212 444 163 q 471 369 471 256 q 454 570 471 510 q 446 624 446 600 q 472 670 446 670 q 502 648 488 670 q 526 637 514 629 q 532 640 529 640 q 578 541 549 640 q 581 543 581 534 q 581 568 582 551 q 580 572 581 570 q 579 578 579 575 q 591 640 579 609 q 614 670 602 670 q 654 559 637 670 q 670 321 670 448 q 658 163 670 224 q 618 50 648 111 q 556 -50 589 -12 q 468 -121 526 -84 q 370 -170 410 -159 q 336 -175 353 -175 q 290 -165 315 -175 q 237 -150 278 -161 q 170 -127 197 -138 q 127 -102 144 -117 q 95 -68 104 -80 q 78 -5 85 -56 q 68 103 71 45 q 64 312 66 161 q 61 515 61 461 q 65 661 61 652 z "},"v":{"ha":807,"x_min":4,"x_max":784,"o":"m 27 593 l 43 593 q 77 598 66 593 q 81 600 79 600 q 136 571 99 600 q 172 544 171 544 q 157 567 174 544 q 132 646 132 600 q 142 670 132 670 q 219 600 156 670 q 357 430 282 529 l 457 296 l 496 380 q 559 534 530 450 q 589 643 589 617 q 605 684 589 661 q 637 708 621 708 q 662 681 658 708 q 682 662 666 656 q 689 663 685 663 q 696 643 696 663 q 694 609 696 624 l 689 547 l 705 586 q 753 637 723 628 l 784 647 l 776 597 q 671 271 766 524 q 547 -14 576 18 q 473 -46 529 -31 l 418 -61 l 391 -8 q 346 39 366 39 q 342 39 345 39 q 338 38 339 38 q 319 38 321 35 q 326 57 317 41 q 330 75 330 65 q 297 149 330 92 q 172 342 245 237 q 58 490 99 446 q 4 575 4 548 q 27 593 4 593 m 468 20 q 490 77 490 72 q 487 81 490 81 q 471 72 486 81 q 448 11 453 60 l 442 -38 l 468 20 z "},"w":{"ha":1023,"x_min":18,"x_max":989,"o":"m 798 656 q 829 720 798 720 q 856 701 838 720 q 886 682 872 682 q 905 627 901 682 l 909 568 l 918 613 q 942 663 924 640 q 974 686 960 686 q 989 646 989 686 q 967 471 989 590 q 905 191 948 365 q 849 -7 861 18 q 808 -43 842 -22 q 760 -64 774 -64 q 757 -54 757 -64 q 772 24 757 -39 q 773 47 776 42 q 757 53 770 53 q 699 31 741 53 q 651 -3 656 8 q 640 -12 647 -12 q 533 113 618 -12 l 480 189 l 457 123 q 389 -31 414 1 q 315 -64 363 -64 q 296 -59 300 -64 q 296 -38 293 -54 q 297 -16 297 -33 q 281 35 297 35 q 248 26 277 35 q 186 -22 209 11 q 164 -49 167 -49 q 156 -31 160 -49 q 127 142 146 18 q 39 545 83 438 q 18 628 18 602 q 39 658 18 658 q 65 642 52 658 q 94 637 79 625 q 102 643 99 643 q 149 579 114 643 q 157 568 155 568 q 159 572 159 568 q 156 595 159 576 q 153 618 153 613 q 164 659 153 644 l 180 682 l 203 646 q 300 362 231 601 l 313 316 l 335 368 q 354 469 354 415 q 377 560 354 526 q 406 594 399 594 q 425 552 412 594 q 463 509 438 509 q 483 528 477 509 q 519 579 488 543 q 556 616 549 616 l 557 616 q 587 498 560 609 q 643 328 608 415 q 690 240 678 240 l 692 240 q 754 431 711 259 q 798 656 798 602 z "},"x":{"ha":754,"x_min":1,"x_max":741,"o":"m 20 623 q 37 620 23 623 q 58 617 52 617 q 69 623 69 617 q 77 633 69 633 q 149 594 94 633 l 203 556 l 163 600 q 122 677 122 646 l 122 709 l 156 692 q 285 582 186 675 q 387 502 369 502 l 388 502 q 476 630 456 605 q 519 663 496 655 q 585 677 560 677 q 602 671 602 677 q 566 610 602 670 q 529 544 529 549 q 533 543 529 543 q 612 557 540 543 q 697 571 685 571 q 709 566 709 571 q 620 442 709 556 l 530 330 l 578 270 q 679 133 628 206 q 736 38 730 60 q 741 -1 741 27 q 738 -52 741 -19 l 730 -117 q 620 68 648 23 l 613 27 q 595 -72 597 -57 q 576 -130 589 -130 q 524 -52 564 -130 q 439 92 491 12 l 397 153 l 355 92 q 282 -31 302 12 q 231 -96 252 -92 q 216 -99 220 -99 q 197 -60 197 -99 q 186 -35 194 -34 q 182 -37 184 -37 q 176 -22 176 -37 q 191 37 176 8 q 205 69 205 64 q 203 73 205 73 q 180 47 197 73 q 104 3 155 3 q 98 12 98 3 q 191 199 98 52 q 254 323 254 298 q 251 332 254 327 q 139 449 241 350 q 27 548 37 548 q 11 569 20 548 q 1 604 1 590 q 20 623 1 623 z "},"y":{"ha":780,"x_min":-3,"x_max":773,"o":"m 5 575 q 15 573 7 575 q 26 571 23 571 q 39 587 39 571 q 51 612 39 600 q 76 625 62 625 q 114 601 87 625 q 142 578 137 578 q 144 579 144 578 q 133 604 144 586 q 118 682 118 628 q 122 697 118 697 q 301 450 172 697 l 365 326 l 446 484 q 539 652 509 612 q 616 711 570 693 q 655 724 648 724 l 656 724 q 617 629 656 718 q 583 545 583 556 q 587 541 583 541 q 647 570 606 541 q 716 608 673 587 q 770 629 760 629 l 773 629 l 773 628 q 636 370 773 598 q 522 163 559 243 q 435 -70 488 91 q 381 -258 381 -231 q 360 -309 381 -279 q 324 -338 339 -338 q 305 -300 305 -338 q 296 -278 305 -278 q 289 -280 294 -278 q 281 -282 283 -282 q 274 -262 274 -282 q 277 -214 274 -255 l 282 -141 l 267 -187 q 220 -254 250 -233 l 187 -277 l 187 -239 q 216 -110 187 -209 l 243 -16 l 198 129 q 16 543 95 472 q -3 570 -3 560 q 5 575 -3 575 z "},"z":{"ha":673,"x_min":18,"x_max":655,"o":"m 126 20 q 116 19 123 20 q 103 18 109 18 q 19 41 50 18 q 18 43 18 42 q 60 125 18 58 q 153 255 103 191 q 355 533 355 513 q 343 536 355 536 q 227 527 309 536 q 118 511 144 518 q 109 509 115 511 q 100 507 103 507 q 76 533 76 507 q 83 567 76 544 q 134 628 96 613 l 172 643 l 138 643 q 85 665 104 643 q 73 684 73 677 q 99 697 73 686 q 332 739 170 724 q 525 749 431 749 q 600 742 589 749 q 629 709 610 735 q 647 674 647 682 q 600 665 647 665 q 552 650 552 665 q 591 620 552 620 q 595 621 593 620 q 601 621 598 621 q 608 622 604 621 q 613 623 612 623 q 621 614 621 623 q 617 595 621 612 q 613 571 613 578 q 623 541 613 555 q 632 525 632 526 q 609 515 632 519 q 567 483 591 513 q 487 366 543 453 q 440 292 467 334 q 397 225 414 251 q 377 193 381 199 l 357 163 l 453 163 q 602 149 568 163 q 652 79 636 134 q 655 64 655 65 q 644 57 655 57 q 606 61 637 57 q 566 65 574 65 q 552 62 552 65 q 576 4 552 53 q 609 -68 602 -47 l 617 -91 l 533 -71 q 385 -52 450 -52 q 160 -100 282 -52 q 94 -121 109 -121 q 73 -111 83 -121 q 69 -73 57 -95 q 75 -39 75 -62 q 106 -3 75 -28 q 129 20 129 16 l 126 20 z "},"{":{"ha":509,"x_min":15,"x_max":503,"o":"m 316 783 q 336 667 316 779 q 357 528 357 555 q 338 446 357 484 l 316 406 l 347 346 q 370 296 365 312 q 374 247 374 279 q 372 161 374 240 l 366 37 l 399 7 q 427 -27 427 -19 q 359 -42 427 -34 l 297 -50 l 326 -76 q 399 -140 377 -123 l 446 -176 l 397 -183 q 338 -189 357 -189 q 205 -146 254 -189 q 164 -93 176 -121 q 152 -18 152 -65 q 175 187 152 41 q 179 231 179 212 q 149 286 179 274 q 144 308 132 293 q 152 320 152 316 q 90 338 152 334 q 55 347 64 339 q 31 391 46 355 q 15 433 15 430 q 18 438 15 438 q 26 435 20 438 q 58 450 43 429 q 61 472 69 469 q 46 496 53 472 l 46 499 q 45 502 45 500 q 70 545 45 522 q 119 567 95 567 q 130 568 126 567 q 135 572 133 568 q 137 585 137 576 q 133 628 137 597 q 125 808 125 696 l 125 841 q 130 926 125 901 q 151 987 134 951 q 194 1065 179 1050 q 241 1084 213 1084 q 262 1073 262 1084 q 270 1065 262 1065 q 335 1024 279 1065 q 477 958 422 958 q 503 939 503 958 q 471 886 503 921 q 420 852 438 852 q 416 842 401 852 q 427 808 430 836 q 393 783 423 783 q 342 792 380 783 q 326 795 328 795 q 316 783 316 795 z "},"|":{"ha":339,"x_min":50,"x_max":282,"o":"m 57 826 q 50 941 50 911 q 58 1000 50 971 q 77 1029 65 1029 q 103 998 87 1029 q 133 974 119 970 l 136 974 q 164 886 149 974 l 180 793 l 182 865 q 195 954 183 913 q 220 994 208 994 q 261 696 244 994 q 281 18 278 399 l 282 -218 q 209 -321 273 -233 l 203 -193 l 198 -65 l 176 -100 q 126 -182 145 -148 q 76 -255 84 -255 q 62 -102 62 -255 q 64 159 62 -49 q 66 441 66 366 q 57 826 66 712 z "},"}":{"ha":552,"x_min":7,"x_max":536,"o":"m 159 791 q 162 817 159 795 q 165 846 165 840 q 156 861 165 861 q 163 884 142 861 q 184 924 184 907 q 137 945 184 945 q 92 962 92 945 q 106 981 92 975 q 103 987 117 986 l 102 987 q 52 967 84 987 q 14 947 18 947 q 7 968 7 947 q 45 1028 7 990 q 77 1056 66 1050 q 110 1062 88 1062 q 250 1038 187 1062 q 334 974 312 1015 q 357 945 349 945 q 399 777 382 945 q 419 644 412 661 q 437 625 427 625 q 461 631 441 625 q 487 637 481 637 q 518 590 509 637 q 514 556 526 556 q 506 537 506 556 q 529 450 506 500 q 536 426 536 438 q 514 400 536 415 q 454 321 481 377 l 425 263 l 444 186 q 458 69 458 122 q 399 -80 458 -16 q 313 -139 369 -111 q 224 -167 258 -167 q 218 -166 221 -167 q 213 -165 214 -165 q 157 -136 191 -161 q 123 -98 123 -110 q 187 -84 123 -88 q 264 -62 264 -79 q 232 -37 264 -54 q 184 3 203 -23 q 165 52 165 28 q 194 61 165 61 q 236 68 225 61 q 247 98 247 75 q 239 167 247 115 q 232 237 232 218 q 267 380 232 309 l 292 427 l 262 473 q 209 711 209 549 l 209 791 l 182 784 q 174 782 179 784 q 165 780 168 780 q 159 791 159 780 z "},"~":{"ha":841,"x_min":50,"x_max":800,"o":"m 669 517 q 709 540 694 540 q 733 517 724 540 q 742 465 742 495 q 718 416 742 441 q 697 391 697 396 q 700 389 697 389 q 730 403 708 389 q 764 412 743 412 q 800 393 800 412 q 718 312 800 365 q 581 254 635 259 q 551 252 570 252 q 401 315 473 252 q 297 373 335 373 q 286 372 289 373 q 246 311 273 366 q 220 232 220 256 q 198 209 220 209 q 150 236 175 209 q 125 289 125 263 q 121 309 125 309 q 111 301 118 309 q 89 283 104 292 q 58 274 73 274 q 50 288 50 274 q 103 470 50 380 q 229 598 156 560 q 296 618 267 618 q 407 572 326 618 q 522 488 488 525 q 568 450 557 450 q 669 517 597 450 m 313 514 q 297 534 301 534 q 304 514 292 534 q 321 494 316 494 q 313 514 326 494 z "}}}
